<mxfile host="app.diagrams.net" agent="Mozilla/5.0 (Windows NT 10.0; Win64; x64) AppleWebKit/537.36 (KHTML, like Gecko) Chrome/139.0.0.0 Safari/537.36" version="28.1.0" pages="2">
  <diagram name="Diagrama minimizado" id="FR53nzWtSRuqBQgFj-Qb">
    <mxGraphModel grid="1" page="1" gridSize="10" guides="1" tooltips="1" connect="1" arrows="1" fold="1" pageScale="1" pageWidth="827" pageHeight="1169" math="0" shadow="0">
      <root>
        <mxCell id="Z9lGx5DGAonohV33fbXT-0" />
        <mxCell id="Z9lGx5DGAonohV33fbXT-1" parent="Z9lGx5DGAonohV33fbXT-0" />
        <mxCell id="uyS_uUgnwMnRfeJm0ZjL-2" style="edgeStyle=orthogonalEdgeStyle;rounded=0;orthogonalLoop=1;jettySize=auto;html=1;exitX=1;exitY=0.5;exitDx=0;exitDy=0;entryX=0;entryY=0.5;entryDx=0;entryDy=0;startArrow=classic;startFill=1;" edge="1" parent="Z9lGx5DGAonohV33fbXT-1" source="Z9lGx5DGAonohV33fbXT-38" target="Z9lGx5DGAonohV33fbXT-69">
          <mxGeometry relative="1" as="geometry" />
        </mxCell>
        <mxCell id="Z9lGx5DGAonohV33fbXT-38" value="Fornecimento" style="swimlane;fontStyle=1;align=center;verticalAlign=top;childLayout=stackLayout;horizontal=1;startSize=26;horizontalStack=0;resizeParent=1;resizeParentMax=0;resizeLast=0;collapsible=1;marginBottom=0;whiteSpace=wrap;html=1;" parent="Z9lGx5DGAonohV33fbXT-1" vertex="1" collapsed="1">
          <mxGeometry x="-3150" y="-1730" width="110" height="30" as="geometry">
            <mxRectangle x="-2894" y="-1010" width="310" height="384" as="alternateBounds" />
          </mxGeometry>
        </mxCell>
        <mxCell id="Z9lGx5DGAonohV33fbXT-39" value="&lt;div style=&quot;text-align: center;&quot;&gt;&lt;font style=&quot;color: rgb(0, 0, 0);&quot; face=&quot;Tahoma&quot;&gt;- fornecedor: Fornecedor&amp;nbsp;&lt;/font&gt;&lt;/div&gt;&lt;div&gt;&lt;font style=&quot;color: rgb(0, 0, 0); font-size: 10px;&quot; face=&quot;Tahoma&quot;&gt;&lt;br&gt;&lt;/font&gt;&lt;/div&gt;" style="text;strokeColor=none;fillColor=none;align=left;verticalAlign=top;spacingLeft=4;spacingRight=4;overflow=hidden;rotatable=0;points=[[0,0.5],[1,0.5]];portConstraint=eastwest;whiteSpace=wrap;html=1;" parent="Z9lGx5DGAonohV33fbXT-38" vertex="1">
          <mxGeometry y="26" width="310" height="26" as="geometry" />
        </mxCell>
        <mxCell id="Z9lGx5DGAonohV33fbXT-40" value="&lt;div style=&quot;text-align: center;&quot;&gt;&lt;font style=&quot;color: rgb(0, 0, 0);&quot; face=&quot;Tahoma&quot;&gt;- produto: Produto&lt;/font&gt;&lt;/div&gt;&lt;div&gt;&lt;font style=&quot;color: rgb(0, 0, 0); font-size: 10px;&quot; face=&quot;Tahoma&quot;&gt;&lt;br&gt;&lt;/font&gt;&lt;/div&gt;" style="text;strokeColor=none;fillColor=none;align=left;verticalAlign=top;spacingLeft=4;spacingRight=4;overflow=hidden;rotatable=0;points=[[0,0.5],[1,0.5]];portConstraint=eastwest;whiteSpace=wrap;html=1;" parent="Z9lGx5DGAonohV33fbXT-38" vertex="1">
          <mxGeometry y="52" width="310" height="26" as="geometry" />
        </mxCell>
        <mxCell id="Z9lGx5DGAonohV33fbXT-41" value="&lt;font&gt;&lt;font style=&quot;color: rgb(0, 0, 0); font-family: Tahoma; text-align: center;&quot;&gt;&amp;nbsp;- precoCusto: double&lt;/font&gt;&lt;span style=&quot;font-family: Tahoma; text-align: center; color: light-dark(rgb(153, 0, 77), rgb(255, 172, 238));&quot;&gt;&amp;nbsp;&lt;/span&gt;&lt;/font&gt;" style="text;strokeColor=none;fillColor=none;align=left;verticalAlign=top;spacingLeft=4;spacingRight=4;overflow=hidden;rotatable=0;points=[[0,0.5],[1,0.5]];portConstraint=eastwest;whiteSpace=wrap;html=1;" parent="Z9lGx5DGAonohV33fbXT-38" vertex="1">
          <mxGeometry y="78" width="310" height="26" as="geometry" />
        </mxCell>
        <mxCell id="Z9lGx5DGAonohV33fbXT-42" value="&lt;font&gt;&lt;font style=&quot;color: rgb(0, 0, 0); font-family: Tahoma; text-align: center;&quot;&gt;&amp;nbsp;- precoVenda: double&lt;/font&gt;&lt;span style=&quot;font-family: Tahoma; text-align: center; color: light-dark(rgb(153, 0, 77), rgb(255, 172, 238));&quot;&gt;&amp;nbsp;&lt;/span&gt;&lt;/font&gt;" style="text;strokeColor=none;fillColor=none;align=left;verticalAlign=top;spacingLeft=4;spacingRight=4;overflow=hidden;rotatable=0;points=[[0,0.5],[1,0.5]];portConstraint=eastwest;whiteSpace=wrap;html=1;" parent="Z9lGx5DGAonohV33fbXT-38" vertex="1">
          <mxGeometry y="104" width="310" height="26" as="geometry" />
        </mxCell>
        <mxCell id="Z9lGx5DGAonohV33fbXT-43" value="" style="line;strokeWidth=1;fillColor=none;align=left;verticalAlign=middle;spacingTop=-1;spacingLeft=3;spacingRight=3;rotatable=0;labelPosition=right;points=[];portConstraint=eastwest;strokeColor=inherit;" parent="Z9lGx5DGAonohV33fbXT-38" vertex="1">
          <mxGeometry y="130" width="310" height="8" as="geometry" />
        </mxCell>
        <mxCell id="Z9lGx5DGAonohV33fbXT-44" value="+ Fornecimento(fornecedor: Fornecedor, produto: Produto, precoCusto: double, precoVenda: double)" style="text;strokeColor=none;fillColor=none;align=left;verticalAlign=top;spacingLeft=4;spacingRight=4;overflow=hidden;rotatable=0;points=[[0,0.5],[1,0.5]];portConstraint=eastwest;whiteSpace=wrap;html=1;" parent="Z9lGx5DGAonohV33fbXT-38" vertex="1">
          <mxGeometry y="138" width="310" height="38" as="geometry" />
        </mxCell>
        <mxCell id="Z9lGx5DGAonohV33fbXT-45" value="&lt;span style=&quot;font-family: Tahoma; text-align: center;&quot;&gt;&lt;font&gt;&amp;nbsp;+ getFornecedor(): Fornecedor&amp;nbsp;&lt;/font&gt;&lt;/span&gt;" style="text;strokeColor=none;fillColor=none;align=left;verticalAlign=top;spacingLeft=4;spacingRight=4;overflow=hidden;rotatable=0;points=[[0,0.5],[1,0.5]];portConstraint=eastwest;whiteSpace=wrap;html=1;" parent="Z9lGx5DGAonohV33fbXT-38" vertex="1">
          <mxGeometry y="176" width="310" height="26" as="geometry" />
        </mxCell>
        <mxCell id="Z9lGx5DGAonohV33fbXT-46" value="&lt;div style=&quot;font-family: Tahoma; text-align: center;&quot;&gt;&lt;span style=&quot;background-color: transparent; color: light-dark(rgb(0, 0, 0), rgb(255, 255, 255));&quot;&gt;&lt;font&gt;&amp;nbsp;+ setFornecedor(fornecedor: Fornecedor): void&amp;nbsp;&lt;/font&gt;&lt;/span&gt;&lt;/div&gt;&lt;div&gt;&lt;span style=&quot;background-color: transparent; color: light-dark(rgb(0, 0, 0), rgb(255, 255, 255));&quot;&gt;&lt;br&gt;&lt;/span&gt;&lt;/div&gt;" style="text;strokeColor=none;fillColor=none;align=left;verticalAlign=top;spacingLeft=4;spacingRight=4;overflow=hidden;rotatable=0;points=[[0,0.5],[1,0.5]];portConstraint=eastwest;whiteSpace=wrap;html=1;" parent="Z9lGx5DGAonohV33fbXT-38" vertex="1">
          <mxGeometry y="202" width="310" height="26" as="geometry" />
        </mxCell>
        <mxCell id="Z9lGx5DGAonohV33fbXT-47" value="&lt;div style=&quot;font-family: Tahoma; text-align: center;&quot;&gt;&lt;span style=&quot;background-color: transparent; color: light-dark(rgb(0, 0, 0), rgb(255, 255, 255));&quot;&gt;&lt;font&gt;+ getProduto(): Produto&amp;nbsp;&lt;/font&gt;&lt;/span&gt;&lt;/div&gt;&lt;div&gt;&lt;span style=&quot;background-color: transparent; color: light-dark(rgb(0, 0, 0), rgb(255, 255, 255));&quot;&gt;&lt;br&gt;&lt;/span&gt;&lt;/div&gt;" style="text;strokeColor=none;fillColor=none;align=left;verticalAlign=top;spacingLeft=4;spacingRight=4;overflow=hidden;rotatable=0;points=[[0,0.5],[1,0.5]];portConstraint=eastwest;whiteSpace=wrap;html=1;" parent="Z9lGx5DGAonohV33fbXT-38" vertex="1">
          <mxGeometry y="228" width="310" height="26" as="geometry" />
        </mxCell>
        <mxCell id="Z9lGx5DGAonohV33fbXT-48" value="&lt;div style=&quot;font-family: Tahoma; text-align: center;&quot;&gt;&lt;span style=&quot;background-color: transparent; color: light-dark(rgb(0, 0, 0), rgb(255, 255, 255));&quot;&gt;&lt;font&gt;&amp;nbsp;+ setProduto(produto: Produto): void&amp;nbsp;&lt;/font&gt;&lt;/span&gt;&lt;/div&gt;&lt;div&gt;&lt;span style=&quot;background-color: transparent; color: light-dark(rgb(0, 0, 0), rgb(255, 255, 255));&quot;&gt;&lt;br&gt;&lt;/span&gt;&lt;/div&gt;" style="text;strokeColor=none;fillColor=none;align=left;verticalAlign=top;spacingLeft=4;spacingRight=4;overflow=hidden;rotatable=0;points=[[0,0.5],[1,0.5]];portConstraint=eastwest;whiteSpace=wrap;html=1;" parent="Z9lGx5DGAonohV33fbXT-38" vertex="1">
          <mxGeometry y="254" width="310" height="26" as="geometry" />
        </mxCell>
        <mxCell id="Z9lGx5DGAonohV33fbXT-49" value="&lt;div style=&quot;font-family: Tahoma; text-align: center;&quot;&gt;+ getPrecoCusto(): double&lt;/div&gt;" style="text;strokeColor=none;fillColor=none;align=left;verticalAlign=top;spacingLeft=4;spacingRight=4;overflow=hidden;rotatable=0;points=[[0,0.5],[1,0.5]];portConstraint=eastwest;whiteSpace=wrap;html=1;" parent="Z9lGx5DGAonohV33fbXT-38" vertex="1">
          <mxGeometry y="280" width="310" height="26" as="geometry" />
        </mxCell>
        <mxCell id="Z9lGx5DGAonohV33fbXT-50" value="&lt;div style=&quot;font-family: Tahoma; text-align: center;&quot;&gt;+ setPrecoCusto(precoCusto: double): void&lt;/div&gt;" style="text;strokeColor=none;fillColor=none;align=left;verticalAlign=top;spacingLeft=4;spacingRight=4;overflow=hidden;rotatable=0;points=[[0,0.5],[1,0.5]];portConstraint=eastwest;whiteSpace=wrap;html=1;" parent="Z9lGx5DGAonohV33fbXT-38" vertex="1">
          <mxGeometry y="306" width="310" height="26" as="geometry" />
        </mxCell>
        <mxCell id="Z9lGx5DGAonohV33fbXT-51" value="&lt;div style=&quot;font-family: Tahoma; text-align: center;&quot;&gt;+ getPrecoVenda(): double&lt;/div&gt;" style="text;strokeColor=none;fillColor=none;align=left;verticalAlign=top;spacingLeft=4;spacingRight=4;overflow=hidden;rotatable=0;points=[[0,0.5],[1,0.5]];portConstraint=eastwest;whiteSpace=wrap;html=1;" parent="Z9lGx5DGAonohV33fbXT-38" vertex="1">
          <mxGeometry y="332" width="310" height="26" as="geometry" />
        </mxCell>
        <mxCell id="Z9lGx5DGAonohV33fbXT-52" value="&lt;div style=&quot;font-family: Tahoma; text-align: center;&quot;&gt;+ setPrecoVenda(precoVenda: double): void&lt;/div&gt;" style="text;strokeColor=none;fillColor=none;align=left;verticalAlign=top;spacingLeft=4;spacingRight=4;overflow=hidden;rotatable=0;points=[[0,0.5],[1,0.5]];portConstraint=eastwest;whiteSpace=wrap;html=1;" parent="Z9lGx5DGAonohV33fbXT-38" vertex="1">
          <mxGeometry y="358" width="310" height="26" as="geometry" />
        </mxCell>
        <mxCell id="uyS_uUgnwMnRfeJm0ZjL-1" style="edgeStyle=orthogonalEdgeStyle;rounded=0;orthogonalLoop=1;jettySize=auto;html=1;exitX=1;exitY=0.5;exitDx=0;exitDy=0;entryX=0;entryY=0.5;entryDx=0;entryDy=0;startArrow=classic;startFill=1;" edge="1" parent="Z9lGx5DGAonohV33fbXT-1" source="Z9lGx5DGAonohV33fbXT-56" target="Z9lGx5DGAonohV33fbXT-38">
          <mxGeometry relative="1" as="geometry" />
        </mxCell>
        <mxCell id="uyS_uUgnwMnRfeJm0ZjL-15" style="edgeStyle=orthogonalEdgeStyle;rounded=0;orthogonalLoop=1;jettySize=auto;html=1;exitX=0.75;exitY=0;exitDx=0;exitDy=0;entryX=0.5;entryY=1;entryDx=0;entryDy=0;endArrow=block;endFill=0;dashed=1;" edge="1" parent="Z9lGx5DGAonohV33fbXT-1" source="Z9lGx5DGAonohV33fbXT-56" target="Z9lGx5DGAonohV33fbXT-156">
          <mxGeometry relative="1" as="geometry" />
        </mxCell>
        <mxCell id="Z9lGx5DGAonohV33fbXT-56" value="Fornecedor" style="swimlane;fontStyle=1;align=center;verticalAlign=top;childLayout=stackLayout;horizontal=1;startSize=26;horizontalStack=0;resizeParent=1;resizeParentMax=0;resizeLast=0;collapsible=1;marginBottom=0;whiteSpace=wrap;html=1;" parent="Z9lGx5DGAonohV33fbXT-1" vertex="1" collapsed="1">
          <mxGeometry x="-3320" y="-1730" width="110" height="30" as="geometry">
            <mxRectangle x="-3550" y="-1250" width="310" height="350" as="alternateBounds" />
          </mxGeometry>
        </mxCell>
        <mxCell id="Z9lGx5DGAonohV33fbXT-57" value="&lt;div style=&quot;text-align: center;&quot;&gt;&lt;font face=&quot;Tahoma&quot;&gt;- id: int&lt;span style=&quot;white-space: pre;&quot;&gt;&#x9;&lt;/span&gt;&lt;/font&gt;&lt;/div&gt;" style="text;strokeColor=none;fillColor=none;align=left;verticalAlign=top;spacingLeft=4;spacingRight=4;overflow=hidden;rotatable=0;points=[[0,0.5],[1,0.5]];portConstraint=eastwest;whiteSpace=wrap;html=1;" parent="Z9lGx5DGAonohV33fbXT-56" vertex="1">
          <mxGeometry y="26" width="310" height="26" as="geometry" />
        </mxCell>
        <mxCell id="Z9lGx5DGAonohV33fbXT-58" value="&lt;div style=&quot;text-align: center;&quot;&gt;&lt;font face=&quot;Tahoma&quot;&gt;- nome: String&lt;/font&gt;&lt;/div&gt;" style="text;strokeColor=none;fillColor=none;align=left;verticalAlign=top;spacingLeft=4;spacingRight=4;overflow=hidden;rotatable=0;points=[[0,0.5],[1,0.5]];portConstraint=eastwest;whiteSpace=wrap;html=1;" parent="Z9lGx5DGAonohV33fbXT-56" vertex="1">
          <mxGeometry y="52" width="310" height="26" as="geometry" />
        </mxCell>
        <mxCell id="Z9lGx5DGAonohV33fbXT-59" value="&lt;div style=&quot;text-align: center;&quot;&gt;&lt;span style=&quot;background-color: transparent; color: light-dark(rgb(0, 0, 0), rgb(255, 255, 255));&quot;&gt;&lt;font face=&quot;Tahoma&quot;&gt;- fornecimentos: List&amp;lt;Fornecimento&amp;gt;&lt;/font&gt;&lt;/span&gt;&lt;/div&gt;" style="text;strokeColor=none;fillColor=none;align=left;verticalAlign=top;spacingLeft=4;spacingRight=4;overflow=hidden;rotatable=0;points=[[0,0.5],[1,0.5]];portConstraint=eastwest;whiteSpace=wrap;html=1;" parent="Z9lGx5DGAonohV33fbXT-56" vertex="1">
          <mxGeometry y="78" width="310" height="26" as="geometry" />
        </mxCell>
        <mxCell id="Z9lGx5DGAonohV33fbXT-60" value="" style="line;strokeWidth=1;fillColor=none;align=left;verticalAlign=middle;spacingTop=-1;spacingLeft=3;spacingRight=3;rotatable=0;labelPosition=right;points=[];portConstraint=eastwest;strokeColor=inherit;" parent="Z9lGx5DGAonohV33fbXT-56" vertex="1">
          <mxGeometry y="104" width="310" height="8" as="geometry" />
        </mxCell>
        <mxCell id="Z9lGx5DGAonohV33fbXT-61" value="&lt;b&gt;&amp;nbsp;+ Fornecedor(id: int, nome: String)&lt;/b&gt;" style="text;strokeColor=none;fillColor=none;align=left;verticalAlign=top;spacingLeft=4;spacingRight=4;overflow=hidden;rotatable=0;points=[[0,0.5],[1,0.5]];portConstraint=eastwest;whiteSpace=wrap;html=1;" parent="Z9lGx5DGAonohV33fbXT-56" vertex="1">
          <mxGeometry y="112" width="310" height="28" as="geometry" />
        </mxCell>
        <mxCell id="Z9lGx5DGAonohV33fbXT-62" value="+ cadastrar() : void" style="text;strokeColor=none;fillColor=none;align=left;verticalAlign=top;spacingLeft=4;spacingRight=4;overflow=hidden;rotatable=0;points=[[0,0.5],[1,0.5]];portConstraint=eastwest;whiteSpace=wrap;html=1;" parent="Z9lGx5DGAonohV33fbXT-56" vertex="1">
          <mxGeometry y="140" width="310" height="26" as="geometry" />
        </mxCell>
        <mxCell id="Z9lGx5DGAonohV33fbXT-63" value="+ atualizar(): void" style="text;strokeColor=none;fillColor=none;align=left;verticalAlign=top;spacingLeft=4;spacingRight=4;overflow=hidden;rotatable=0;points=[[0,0.5],[1,0.5]];portConstraint=eastwest;whiteSpace=wrap;html=1;" parent="Z9lGx5DGAonohV33fbXT-56" vertex="1">
          <mxGeometry y="166" width="310" height="26" as="geometry" />
        </mxCell>
        <mxCell id="Z9lGx5DGAonohV33fbXT-64" value="+ remover: void" style="text;strokeColor=none;fillColor=none;align=left;verticalAlign=top;spacingLeft=4;spacingRight=4;overflow=hidden;rotatable=0;points=[[0,0.5],[1,0.5]];portConstraint=eastwest;whiteSpace=wrap;html=1;" parent="Z9lGx5DGAonohV33fbXT-56" vertex="1">
          <mxGeometry y="192" width="310" height="26" as="geometry" />
        </mxCell>
        <mxCell id="Z9lGx5DGAonohV33fbXT-65" value="&lt;div style=&quot;font-family: Tahoma; text-align: center;&quot;&gt;+ setNome(nome: String): void&amp;nbsp;&lt;/div&gt;" style="text;strokeColor=none;fillColor=none;align=left;verticalAlign=top;spacingLeft=4;spacingRight=4;overflow=hidden;rotatable=0;points=[[0,0.5],[1,0.5]];portConstraint=eastwest;whiteSpace=wrap;html=1;" parent="Z9lGx5DGAonohV33fbXT-56" vertex="1">
          <mxGeometry y="218" width="310" height="26" as="geometry" />
        </mxCell>
        <mxCell id="Z9lGx5DGAonohV33fbXT-66" value="&lt;div style=&quot;font-family: Tahoma; text-align: center;&quot;&gt;+ getNome(): String&amp;nbsp;&lt;/div&gt;" style="text;strokeColor=none;fillColor=none;align=left;verticalAlign=top;spacingLeft=4;spacingRight=4;overflow=hidden;rotatable=0;points=[[0,0.5],[1,0.5]];portConstraint=eastwest;whiteSpace=wrap;html=1;" parent="Z9lGx5DGAonohV33fbXT-56" vertex="1">
          <mxGeometry y="244" width="310" height="26" as="geometry" />
        </mxCell>
        <mxCell id="Z9lGx5DGAonohV33fbXT-67" value="&lt;div style=&quot;font-family: Tahoma; text-align: center;&quot;&gt;+ getFornecimentos(): List&amp;lt;Fornecimento&amp;gt;&amp;nbsp;&lt;/div&gt;" style="text;strokeColor=none;fillColor=none;align=left;verticalAlign=top;spacingLeft=4;spacingRight=4;overflow=hidden;rotatable=0;points=[[0,0.5],[1,0.5]];portConstraint=eastwest;whiteSpace=wrap;html=1;" parent="Z9lGx5DGAonohV33fbXT-56" vertex="1">
          <mxGeometry y="270" width="310" height="26" as="geometry" />
        </mxCell>
        <mxCell id="Z9lGx5DGAonohV33fbXT-68" value="+ setFornecimentos(fornecimentos: List&amp;lt;Fornecimentos&amp;gt;): void" style="text;strokeColor=none;fillColor=none;align=left;verticalAlign=top;spacingLeft=4;spacingRight=4;overflow=hidden;rotatable=0;points=[[0,0.5],[1,0.5]];portConstraint=eastwest;whiteSpace=wrap;html=1;" parent="Z9lGx5DGAonohV33fbXT-56" vertex="1">
          <mxGeometry y="296" width="310" height="54" as="geometry" />
        </mxCell>
        <mxCell id="uyS_uUgnwMnRfeJm0ZjL-0" style="edgeStyle=orthogonalEdgeStyle;rounded=0;orthogonalLoop=1;jettySize=auto;html=1;exitX=1;exitY=0.5;exitDx=0;exitDy=0;entryX=0;entryY=0.5;entryDx=0;entryDy=0;" edge="1" parent="Z9lGx5DGAonohV33fbXT-1" source="Z9lGx5DGAonohV33fbXT-69" target="Z9lGx5DGAonohV33fbXT-95">
          <mxGeometry relative="1" as="geometry" />
        </mxCell>
        <mxCell id="uyS_uUgnwMnRfeJm0ZjL-17" style="edgeStyle=orthogonalEdgeStyle;rounded=0;orthogonalLoop=1;jettySize=auto;html=1;exitX=0.25;exitY=0;exitDx=0;exitDy=0;entryX=0.5;entryY=1;entryDx=0;entryDy=0;dashed=1;endArrow=block;endFill=0;" edge="1" parent="Z9lGx5DGAonohV33fbXT-1" source="Z9lGx5DGAonohV33fbXT-69" target="Z9lGx5DGAonohV33fbXT-156">
          <mxGeometry relative="1" as="geometry" />
        </mxCell>
        <mxCell id="Z9lGx5DGAonohV33fbXT-69" value="Produto" style="swimlane;fontStyle=1;align=center;verticalAlign=top;childLayout=stackLayout;horizontal=1;startSize=26;horizontalStack=0;resizeParent=1;resizeParentMax=0;resizeLast=0;collapsible=1;marginBottom=0;whiteSpace=wrap;html=1;" parent="Z9lGx5DGAonohV33fbXT-1" vertex="1" collapsed="1">
          <mxGeometry x="-2975" y="-1730" width="110" height="30" as="geometry">
            <mxRectangle x="-2975" y="-1730" width="370" height="700" as="alternateBounds" />
          </mxGeometry>
        </mxCell>
        <mxCell id="Z9lGx5DGAonohV33fbXT-70" value="&lt;div style=&quot;text-align: center;&quot;&gt;- id: int&amp;nbsp;&lt;/div&gt;" style="text;strokeColor=none;fillColor=none;align=left;verticalAlign=top;spacingLeft=4;spacingRight=4;overflow=hidden;rotatable=0;points=[[0,0.5],[1,0.5]];portConstraint=eastwest;whiteSpace=wrap;html=1;" parent="Z9lGx5DGAonohV33fbXT-69" vertex="1">
          <mxGeometry y="26" width="370" height="26" as="geometry" />
        </mxCell>
        <mxCell id="Z9lGx5DGAonohV33fbXT-71" value="&lt;div style=&quot;text-align: center;&quot;&gt;- nome: String&amp;nbsp;&lt;/div&gt;" style="text;strokeColor=none;fillColor=none;align=left;verticalAlign=top;spacingLeft=4;spacingRight=4;overflow=hidden;rotatable=0;points=[[0,0.5],[1,0.5]];portConstraint=eastwest;whiteSpace=wrap;html=1;" parent="Z9lGx5DGAonohV33fbXT-69" vertex="1">
          <mxGeometry y="52" width="370" height="26" as="geometry" />
        </mxCell>
        <mxCell id="Z9lGx5DGAonohV33fbXT-72" value="- precoVenda: double&amp;nbsp;" style="text;strokeColor=none;fillColor=none;align=left;verticalAlign=top;spacingLeft=4;spacingRight=4;overflow=hidden;rotatable=0;points=[[0,0.5],[1,0.5]];portConstraint=eastwest;whiteSpace=wrap;html=1;" parent="Z9lGx5DGAonohV33fbXT-69" vertex="1">
          <mxGeometry y="78" width="370" height="26" as="geometry" />
        </mxCell>
        <mxCell id="Z9lGx5DGAonohV33fbXT-73" value="- estoqueAtual: int&amp;nbsp;" style="text;strokeColor=none;fillColor=none;align=left;verticalAlign=top;spacingLeft=4;spacingRight=4;overflow=hidden;rotatable=0;points=[[0,0.5],[1,0.5]];portConstraint=eastwest;whiteSpace=wrap;html=1;" parent="Z9lGx5DGAonohV33fbXT-69" vertex="1">
          <mxGeometry y="104" width="370" height="26" as="geometry" />
        </mxCell>
        <mxCell id="Z9lGx5DGAonohV33fbXT-74" value="- estoqueMinimo: int&amp;nbsp;" style="text;strokeColor=none;fillColor=none;align=left;verticalAlign=top;spacingLeft=4;spacingRight=4;overflow=hidden;rotatable=0;points=[[0,0.5],[1,0.5]];portConstraint=eastwest;whiteSpace=wrap;html=1;" parent="Z9lGx5DGAonohV33fbXT-69" vertex="1">
          <mxGeometry y="130" width="370" height="26" as="geometry" />
        </mxCell>
        <mxCell id="Z9lGx5DGAonohV33fbXT-75" value="- categoria: Categoria&amp;nbsp;" style="text;strokeColor=none;fillColor=none;align=left;verticalAlign=top;spacingLeft=4;spacingRight=4;overflow=hidden;rotatable=0;points=[[0,0.5],[1,0.5]];portConstraint=eastwest;whiteSpace=wrap;html=1;" parent="Z9lGx5DGAonohV33fbXT-69" vertex="1">
          <mxGeometry y="156" width="370" height="28" as="geometry" />
        </mxCell>
        <mxCell id="Z9lGx5DGAonohV33fbXT-76" value="- fornecimentos: List&amp;lt;Fornecimento&amp;gt;&amp;nbsp;" style="text;strokeColor=none;fillColor=none;align=left;verticalAlign=top;spacingLeft=4;spacingRight=4;overflow=hidden;rotatable=0;points=[[0,0.5],[1,0.5]];portConstraint=eastwest;whiteSpace=wrap;html=1;" parent="Z9lGx5DGAonohV33fbXT-69" vertex="1">
          <mxGeometry y="184" width="370" height="26" as="geometry" />
        </mxCell>
        <mxCell id="Z9lGx5DGAonohV33fbXT-77" value="" style="line;strokeWidth=1;fillColor=none;align=left;verticalAlign=middle;spacingTop=-1;spacingLeft=3;spacingRight=3;rotatable=0;labelPosition=right;points=[];portConstraint=eastwest;strokeColor=inherit;" parent="Z9lGx5DGAonohV33fbXT-69" vertex="1">
          <mxGeometry y="210" width="370" height="8" as="geometry" />
        </mxCell>
        <mxCell id="Z9lGx5DGAonohV33fbXT-78" value="+ Produto(id: int, nome: String, precoCusto: double, precoVenda: double, estoqueMinimo: int, categoria: Categoria)" style="text;strokeColor=none;fillColor=none;align=left;verticalAlign=top;spacingLeft=4;spacingRight=4;overflow=hidden;rotatable=0;points=[[0,0.5],[1,0.5]];portConstraint=eastwest;whiteSpace=wrap;html=1;" parent="Z9lGx5DGAonohV33fbXT-69" vertex="1">
          <mxGeometry y="218" width="370" height="46" as="geometry" />
        </mxCell>
        <mxCell id="Z9lGx5DGAonohV33fbXT-79" value="+ cadastrar() : void" style="text;strokeColor=none;fillColor=none;align=left;verticalAlign=top;spacingLeft=4;spacingRight=4;overflow=hidden;rotatable=0;points=[[0,0.5],[1,0.5]];portConstraint=eastwest;whiteSpace=wrap;html=1;" parent="Z9lGx5DGAonohV33fbXT-69" vertex="1">
          <mxGeometry y="264" width="370" height="26" as="geometry" />
        </mxCell>
        <mxCell id="Z9lGx5DGAonohV33fbXT-80" value="+ atualizar(): void" style="text;strokeColor=none;fillColor=none;align=left;verticalAlign=top;spacingLeft=4;spacingRight=4;overflow=hidden;rotatable=0;points=[[0,0.5],[1,0.5]];portConstraint=eastwest;whiteSpace=wrap;html=1;" parent="Z9lGx5DGAonohV33fbXT-69" vertex="1">
          <mxGeometry y="290" width="370" height="26" as="geometry" />
        </mxCell>
        <mxCell id="Z9lGx5DGAonohV33fbXT-81" value="+ remover: void" style="text;strokeColor=none;fillColor=none;align=left;verticalAlign=top;spacingLeft=4;spacingRight=4;overflow=hidden;rotatable=0;points=[[0,0.5],[1,0.5]];portConstraint=eastwest;whiteSpace=wrap;html=1;" parent="Z9lGx5DGAonohV33fbXT-69" vertex="1">
          <mxGeometry y="316" width="370" height="26" as="geometry" />
        </mxCell>
        <mxCell id="Z9lGx5DGAonohV33fbXT-82" value="+ aumentarEstoque(quantidade: int): void&amp;nbsp;" style="text;strokeColor=none;fillColor=none;align=left;verticalAlign=top;spacingLeft=4;spacingRight=4;overflow=hidden;rotatable=0;points=[[0,0.5],[1,0.5]];portConstraint=eastwest;whiteSpace=wrap;html=1;" parent="Z9lGx5DGAonohV33fbXT-69" vertex="1">
          <mxGeometry y="342" width="370" height="26" as="geometry" />
        </mxCell>
        <mxCell id="Z9lGx5DGAonohV33fbXT-83" value="&lt;div style=&quot;font-family: Tahoma;&quot;&gt;&lt;font&gt;+ diminuirEstoque(quantidade: int): void &amp;lt;&amp;lt;throws&amp;gt;&amp;gt; IllegalArgumentException&amp;nbsp;&lt;/font&gt;&lt;/div&gt;" style="text;strokeColor=none;fillColor=none;align=left;verticalAlign=top;spacingLeft=4;spacingRight=4;overflow=hidden;rotatable=0;points=[[0,0.5],[1,0.5]];portConstraint=eastwest;whiteSpace=wrap;html=1;" parent="Z9lGx5DGAonohV33fbXT-69" vertex="1">
          <mxGeometry y="368" width="370" height="46" as="geometry" />
        </mxCell>
        <mxCell id="Z9lGx5DGAonohV33fbXT-84" value="&lt;div style=&quot;font-family: Tahoma; text-align: center;&quot;&gt;+ verificarEstoqueMinimo(): boolean&amp;nbsp;&lt;/div&gt;" style="text;strokeColor=none;fillColor=none;align=left;verticalAlign=top;spacingLeft=4;spacingRight=4;overflow=hidden;rotatable=0;points=[[0,0.5],[1,0.5]];portConstraint=eastwest;whiteSpace=wrap;html=1;" parent="Z9lGx5DGAonohV33fbXT-69" vertex="1">
          <mxGeometry y="414" width="370" height="26" as="geometry" />
        </mxCell>
        <mxCell id="Z9lGx5DGAonohV33fbXT-85" value="&lt;div style=&quot;font-family: Tahoma; text-align: center;&quot;&gt;+ getFornecimentos(): List&amp;lt;Fornecimento&amp;gt;&amp;nbsp;&lt;/div&gt;" style="text;strokeColor=none;fillColor=none;align=left;verticalAlign=top;spacingLeft=4;spacingRight=4;overflow=hidden;rotatable=0;points=[[0,0.5],[1,0.5]];portConstraint=eastwest;whiteSpace=wrap;html=1;" parent="Z9lGx5DGAonohV33fbXT-69" vertex="1">
          <mxGeometry y="440" width="370" height="26" as="geometry" />
        </mxCell>
        <mxCell id="Z9lGx5DGAonohV33fbXT-86" value="&lt;div style=&quot;font-family: Tahoma; text-align: center;&quot;&gt;+ setFornecimentos(fornecimentos: List&amp;lt;Fornecimento&amp;gt;): void&amp;nbsp;&lt;/div&gt;" style="text;strokeColor=none;fillColor=none;align=left;verticalAlign=top;spacingLeft=4;spacingRight=4;overflow=hidden;rotatable=0;points=[[0,0.5],[1,0.5]];portConstraint=eastwest;whiteSpace=wrap;html=1;" parent="Z9lGx5DGAonohV33fbXT-69" vertex="1">
          <mxGeometry y="466" width="370" height="26" as="geometry" />
        </mxCell>
        <mxCell id="Z9lGx5DGAonohV33fbXT-87" value="&lt;div style=&quot;font-family: Tahoma; text-align: center;&quot;&gt;+ getId(): int&amp;nbsp;&lt;/div&gt;" style="text;strokeColor=none;fillColor=none;align=left;verticalAlign=top;spacingLeft=4;spacingRight=4;overflow=hidden;rotatable=0;points=[[0,0.5],[1,0.5]];portConstraint=eastwest;whiteSpace=wrap;html=1;" parent="Z9lGx5DGAonohV33fbXT-69" vertex="1">
          <mxGeometry y="492" width="370" height="26" as="geometry" />
        </mxCell>
        <mxCell id="Z9lGx5DGAonohV33fbXT-88" value="&lt;div style=&quot;font-family: Tahoma; text-align: center;&quot;&gt;+ getNome(): String&amp;nbsp;&lt;/div&gt;" style="text;strokeColor=none;fillColor=none;align=left;verticalAlign=top;spacingLeft=4;spacingRight=4;overflow=hidden;rotatable=0;points=[[0,0.5],[1,0.5]];portConstraint=eastwest;whiteSpace=wrap;html=1;" parent="Z9lGx5DGAonohV33fbXT-69" vertex="1">
          <mxGeometry y="518" width="370" height="26" as="geometry" />
        </mxCell>
        <mxCell id="Z9lGx5DGAonohV33fbXT-89" value="&lt;div style=&quot;font-family: Tahoma; text-align: center;&quot;&gt;+ setNome(nome: String): void&lt;/div&gt;" style="text;strokeColor=none;fillColor=none;align=left;verticalAlign=top;spacingLeft=4;spacingRight=4;overflow=hidden;rotatable=0;points=[[0,0.5],[1,0.5]];portConstraint=eastwest;whiteSpace=wrap;html=1;" parent="Z9lGx5DGAonohV33fbXT-69" vertex="1">
          <mxGeometry y="544" width="370" height="26" as="geometry" />
        </mxCell>
        <mxCell id="Z9lGx5DGAonohV33fbXT-90" value="+ getEstoqueAtual(): int&lt;div&gt;&lt;br&gt;&lt;/div&gt;" style="text;strokeColor=none;fillColor=none;align=left;verticalAlign=top;spacingLeft=4;spacingRight=4;overflow=hidden;rotatable=0;points=[[0,0.5],[1,0.5]];portConstraint=eastwest;whiteSpace=wrap;html=1;" parent="Z9lGx5DGAonohV33fbXT-69" vertex="1">
          <mxGeometry y="570" width="370" height="26" as="geometry" />
        </mxCell>
        <mxCell id="Z9lGx5DGAonohV33fbXT-91" value="+ getEstoqueMinimo(): int&lt;div&gt;&lt;br&gt;&lt;/div&gt;" style="text;strokeColor=none;fillColor=none;align=left;verticalAlign=top;spacingLeft=4;spacingRight=4;overflow=hidden;rotatable=0;points=[[0,0.5],[1,0.5]];portConstraint=eastwest;whiteSpace=wrap;html=1;" parent="Z9lGx5DGAonohV33fbXT-69" vertex="1">
          <mxGeometry y="596" width="370" height="26" as="geometry" />
        </mxCell>
        <mxCell id="Z9lGx5DGAonohV33fbXT-92" value="+ setEstoqueMinimo(estoqueMinimo: int): void&lt;div&gt;&lt;br&gt;&lt;/div&gt;" style="text;strokeColor=none;fillColor=none;align=left;verticalAlign=top;spacingLeft=4;spacingRight=4;overflow=hidden;rotatable=0;points=[[0,0.5],[1,0.5]];portConstraint=eastwest;whiteSpace=wrap;html=1;" parent="Z9lGx5DGAonohV33fbXT-69" vertex="1">
          <mxGeometry y="622" width="370" height="26" as="geometry" />
        </mxCell>
        <mxCell id="Z9lGx5DGAonohV33fbXT-93" value="+ getCategoria(): Categoria&lt;div&gt;&lt;br&gt;&lt;/div&gt;" style="text;strokeColor=none;fillColor=none;align=left;verticalAlign=top;spacingLeft=4;spacingRight=4;overflow=hidden;rotatable=0;points=[[0,0.5],[1,0.5]];portConstraint=eastwest;whiteSpace=wrap;html=1;" parent="Z9lGx5DGAonohV33fbXT-69" vertex="1">
          <mxGeometry y="648" width="370" height="26" as="geometry" />
        </mxCell>
        <mxCell id="Z9lGx5DGAonohV33fbXT-94" value="+ setCategoria(categoria: Categoria): void&lt;div&gt;&lt;br&gt;&lt;/div&gt;" style="text;strokeColor=none;fillColor=none;align=left;verticalAlign=top;spacingLeft=4;spacingRight=4;overflow=hidden;rotatable=0;points=[[0,0.5],[1,0.5]];portConstraint=eastwest;whiteSpace=wrap;html=1;" parent="Z9lGx5DGAonohV33fbXT-69" vertex="1">
          <mxGeometry y="674" width="370" height="26" as="geometry" />
        </mxCell>
        <mxCell id="uyS_uUgnwMnRfeJm0ZjL-14" style="edgeStyle=orthogonalEdgeStyle;rounded=0;orthogonalLoop=1;jettySize=auto;html=1;exitX=0.25;exitY=0;exitDx=0;exitDy=0;entryX=0.5;entryY=1;entryDx=0;entryDy=0;endArrow=block;endFill=0;dashed=1;" edge="1" parent="Z9lGx5DGAonohV33fbXT-1" source="Z9lGx5DGAonohV33fbXT-95" target="Z9lGx5DGAonohV33fbXT-156">
          <mxGeometry relative="1" as="geometry" />
        </mxCell>
        <mxCell id="Z9lGx5DGAonohV33fbXT-95" value="Categoria" style="swimlane;fontStyle=1;align=center;verticalAlign=top;childLayout=stackLayout;horizontal=1;startSize=26;horizontalStack=0;resizeParent=1;resizeParentMax=0;resizeLast=0;collapsible=1;marginBottom=0;whiteSpace=wrap;html=1;" parent="Z9lGx5DGAonohV33fbXT-1" vertex="1" collapsed="1">
          <mxGeometry x="-2820" y="-1730" width="110" height="30" as="geometry">
            <mxRectangle x="-2430" y="-1140" width="310" height="188" as="alternateBounds" />
          </mxGeometry>
        </mxCell>
        <mxCell id="Z9lGx5DGAonohV33fbXT-96" value="&lt;div style=&quot;text-align: center;&quot;&gt;- id: int&amp;nbsp;&lt;/div&gt;" style="text;strokeColor=none;fillColor=none;align=left;verticalAlign=top;spacingLeft=4;spacingRight=4;overflow=hidden;rotatable=0;points=[[0,0.5],[1,0.5]];portConstraint=eastwest;whiteSpace=wrap;html=1;" parent="Z9lGx5DGAonohV33fbXT-95" vertex="1">
          <mxGeometry y="26" width="310" height="26" as="geometry" />
        </mxCell>
        <mxCell id="Z9lGx5DGAonohV33fbXT-97" value="&lt;div style=&quot;text-align: center;&quot;&gt;- nome: String&amp;nbsp;&lt;/div&gt;" style="text;strokeColor=none;fillColor=none;align=left;verticalAlign=top;spacingLeft=4;spacingRight=4;overflow=hidden;rotatable=0;points=[[0,0.5],[1,0.5]];portConstraint=eastwest;whiteSpace=wrap;html=1;" parent="Z9lGx5DGAonohV33fbXT-95" vertex="1">
          <mxGeometry y="52" width="310" height="26" as="geometry" />
        </mxCell>
        <mxCell id="Z9lGx5DGAonohV33fbXT-98" value="" style="line;strokeWidth=1;fillColor=none;align=left;verticalAlign=middle;spacingTop=-1;spacingLeft=3;spacingRight=3;rotatable=0;labelPosition=right;points=[];portConstraint=eastwest;strokeColor=inherit;" parent="Z9lGx5DGAonohV33fbXT-95" vertex="1">
          <mxGeometry y="78" width="310" height="8" as="geometry" />
        </mxCell>
        <mxCell id="Z9lGx5DGAonohV33fbXT-99" value="&lt;b&gt;+ Categoria(id: int, nome: String)&amp;nbsp;&lt;/b&gt;" style="text;strokeColor=none;fillColor=none;align=left;verticalAlign=top;spacingLeft=4;spacingRight=4;overflow=hidden;rotatable=0;points=[[0,0.5],[1,0.5]];portConstraint=eastwest;whiteSpace=wrap;html=1;" parent="Z9lGx5DGAonohV33fbXT-95" vertex="1">
          <mxGeometry y="86" width="310" height="24" as="geometry" />
        </mxCell>
        <mxCell id="Z9lGx5DGAonohV33fbXT-100" value="+ getId(): int&amp;nbsp;" style="text;strokeColor=none;fillColor=none;align=left;verticalAlign=top;spacingLeft=4;spacingRight=4;overflow=hidden;rotatable=0;points=[[0,0.5],[1,0.5]];portConstraint=eastwest;whiteSpace=wrap;html=1;" parent="Z9lGx5DGAonohV33fbXT-95" vertex="1">
          <mxGeometry y="110" width="310" height="26" as="geometry" />
        </mxCell>
        <mxCell id="Z9lGx5DGAonohV33fbXT-101" value="&lt;div style=&quot;font-family: Tahoma; text-align: center;&quot;&gt;+ getNome(): String&amp;nbsp;&lt;/div&gt;" style="text;strokeColor=none;fillColor=none;align=left;verticalAlign=top;spacingLeft=4;spacingRight=4;overflow=hidden;rotatable=0;points=[[0,0.5],[1,0.5]];portConstraint=eastwest;whiteSpace=wrap;html=1;" parent="Z9lGx5DGAonohV33fbXT-95" vertex="1">
          <mxGeometry y="136" width="310" height="26" as="geometry" />
        </mxCell>
        <mxCell id="Z9lGx5DGAonohV33fbXT-102" value="&lt;div style=&quot;font-family: Tahoma; text-align: center;&quot;&gt;+ setNome(nome: String): void&amp;nbsp;&lt;/div&gt;" style="text;strokeColor=none;fillColor=none;align=left;verticalAlign=top;spacingLeft=4;spacingRight=4;overflow=hidden;rotatable=0;points=[[0,0.5],[1,0.5]];portConstraint=eastwest;whiteSpace=wrap;html=1;" parent="Z9lGx5DGAonohV33fbXT-95" vertex="1">
          <mxGeometry y="162" width="310" height="26" as="geometry" />
        </mxCell>
        <mxCell id="uyS_uUgnwMnRfeJm0ZjL-6" style="edgeStyle=orthogonalEdgeStyle;rounded=0;orthogonalLoop=1;jettySize=auto;html=1;exitX=0.5;exitY=0;exitDx=0;exitDy=0;entryX=0.5;entryY=1;entryDx=0;entryDy=0;endArrow=blockThin;endFill=0;" edge="1" parent="Z9lGx5DGAonohV33fbXT-1" source="Z9lGx5DGAonohV33fbXT-103" target="Z9lGx5DGAonohV33fbXT-110">
          <mxGeometry relative="1" as="geometry" />
        </mxCell>
        <mxCell id="Z9lGx5DGAonohV33fbXT-103" value="EntradaEstoque" style="swimlane;fontStyle=1;align=center;verticalAlign=top;childLayout=stackLayout;horizontal=1;startSize=26;horizontalStack=0;resizeParent=1;resizeParentMax=0;resizeLast=0;collapsible=1;marginBottom=0;whiteSpace=wrap;html=1;" parent="Z9lGx5DGAonohV33fbXT-1" vertex="1" collapsed="1">
          <mxGeometry x="-2720" y="-1580" width="110" height="30" as="geometry">
            <mxRectangle x="-3560" y="-660" width="420" height="180" as="alternateBounds" />
          </mxGeometry>
        </mxCell>
        <mxCell id="Z9lGx5DGAonohV33fbXT-104" value="&lt;div style=&quot;text-align: center;&quot;&gt;- fornecedor: Fornecedor&amp;nbsp;&lt;/div&gt;" style="text;strokeColor=none;fillColor=none;align=left;verticalAlign=top;spacingLeft=4;spacingRight=4;overflow=hidden;rotatable=0;points=[[0,0.5],[1,0.5]];portConstraint=eastwest;whiteSpace=wrap;html=1;" parent="Z9lGx5DGAonohV33fbXT-103" vertex="1">
          <mxGeometry y="26" width="420" height="26" as="geometry" />
        </mxCell>
        <mxCell id="Z9lGx5DGAonohV33fbXT-105" value="" style="line;strokeWidth=1;fillColor=none;align=left;verticalAlign=middle;spacingTop=-1;spacingLeft=3;spacingRight=3;rotatable=0;labelPosition=right;points=[];portConstraint=eastwest;strokeColor=inherit;" parent="Z9lGx5DGAonohV33fbXT-103" vertex="1">
          <mxGeometry y="52" width="420" height="8" as="geometry" />
        </mxCell>
        <mxCell id="Z9lGx5DGAonohV33fbXT-106" value="&lt;font style=&quot;font-size: 13px;&quot;&gt;+ EntradaEstoque(id: int, data: Date, produto: Produto, quantidade: int, fornecedor: Fornecedor)&lt;/font&gt;" style="text;strokeColor=none;fillColor=none;align=left;verticalAlign=top;spacingLeft=4;spacingRight=4;overflow=hidden;rotatable=0;points=[[0,0.5],[1,0.5]];portConstraint=eastwest;whiteSpace=wrap;html=1;" parent="Z9lGx5DGAonohV33fbXT-103" vertex="1">
          <mxGeometry y="60" width="420" height="50" as="geometry" />
        </mxCell>
        <mxCell id="Z9lGx5DGAonohV33fbXT-107" value="+ processarMovimento(): void" style="text;strokeColor=none;fillColor=none;align=left;verticalAlign=top;spacingLeft=4;spacingRight=4;overflow=hidden;rotatable=0;points=[[0,0.5],[1,0.5]];portConstraint=eastwest;whiteSpace=wrap;html=1;" parent="Z9lGx5DGAonohV33fbXT-103" vertex="1">
          <mxGeometry y="110" width="420" height="26" as="geometry" />
        </mxCell>
        <mxCell id="Z9lGx5DGAonohV33fbXT-108" value="&lt;div style=&quot;font-family: Tahoma; text-align: center;&quot;&gt;+ getFornecedor(): Fornecedor&lt;/div&gt;" style="text;strokeColor=none;fillColor=none;align=left;verticalAlign=top;spacingLeft=4;spacingRight=4;overflow=hidden;rotatable=0;points=[[0,0.5],[1,0.5]];portConstraint=eastwest;whiteSpace=wrap;html=1;" parent="Z9lGx5DGAonohV33fbXT-103" vertex="1">
          <mxGeometry y="136" width="420" height="26" as="geometry" />
        </mxCell>
        <mxCell id="Z9lGx5DGAonohV33fbXT-109" value="&lt;div style=&quot;font-family: Tahoma; text-align: center;&quot;&gt;&lt;br&gt;&lt;/div&gt;" style="text;strokeColor=none;fillColor=none;align=left;verticalAlign=top;spacingLeft=4;spacingRight=4;overflow=hidden;rotatable=0;points=[[0,0.5],[1,0.5]];portConstraint=eastwest;whiteSpace=wrap;html=1;" parent="Z9lGx5DGAonohV33fbXT-103" vertex="1">
          <mxGeometry y="162" width="420" height="18" as="geometry" />
        </mxCell>
        <mxCell id="Z9lGx5DGAonohV33fbXT-110" value="MovimentoEstoque (abstract)" style="swimlane;fontStyle=1;align=center;verticalAlign=top;childLayout=stackLayout;horizontal=1;startSize=26;horizontalStack=0;resizeParent=1;resizeParentMax=0;resizeLast=0;collapsible=1;marginBottom=0;whiteSpace=wrap;html=1;" parent="Z9lGx5DGAonohV33fbXT-1" vertex="1" collapsed="1">
          <mxGeometry x="-2670" y="-1730" width="180" height="30" as="geometry">
            <mxRectangle x="-3010" y="-890" width="380" height="310" as="alternateBounds" />
          </mxGeometry>
        </mxCell>
        <mxCell id="Z9lGx5DGAonohV33fbXT-111" value="&lt;div style=&quot;text-align: center;&quot;&gt;- id: int&amp;nbsp;&lt;/div&gt;" style="text;strokeColor=none;fillColor=none;align=left;verticalAlign=top;spacingLeft=4;spacingRight=4;overflow=hidden;rotatable=0;points=[[0,0.5],[1,0.5]];portConstraint=eastwest;whiteSpace=wrap;html=1;" parent="Z9lGx5DGAonohV33fbXT-110" vertex="1">
          <mxGeometry y="26" width="380" height="26" as="geometry" />
        </mxCell>
        <mxCell id="Z9lGx5DGAonohV33fbXT-112" value="&lt;div style=&quot;text-align: center;&quot;&gt;- data: Date&lt;span style=&quot;color: rgba(0, 0, 0, 0); font-family: monospace; font-size: 0px; text-wrap-mode: nowrap; background-color: transparent; text-align: left;&quot;&gt;%3CmxGraphModel%3E%3Croot%3E%3CmxCell%20id%3D%220%22%2F%3E%3CmxCell%20id%3D%221%22%20parent%3D%220%22%2F%3E%3CmxCell%20id%3D%222%22%20value%3D%22MovimentoEstoque%22%20style%3D%22swimlane%3BfontStyle%3D1%3Balign%3Dcenter%3BverticalAlign%3Dtop%3BchildLayout%3DstackLayout%3Bhorizontal%3D1%3BstartSize%3D26%3BhorizontalStack%3D0%3BresizeParent%3D1%3BresizeParentMax%3D0%3BresizeLast%3D0%3Bcollapsible%3D1%3BmarginBottom%3D0%3BwhiteSpace%3Dwrap%3Bhtml%3D1%3B%22%20vertex%3D%221%22%20parent%3D%221%22%3E%3CmxGeometry%20x%3D%22-2760%22%20y%3D%22-30%22%20width%3D%22310%22%20height%3D%22188%22%20as%3D%22geometry%22%3E%3CmxRectangle%20x%3D%22-1900%22%20y%3D%2240%22%20width%3D%22110%22%20height%3D%2230%22%20as%3D%22alternateBounds%22%2F%3E%3C%2FmxGeometry%3E%3C%2FmxCell%3E%3CmxCell%20id%3D%223%22%20value%3D%22%26lt%3Bdiv%20style%3D%26quot%3Btext-align%3A%20center%3B%26quot%3B%26gt%3B-%20id%3A%20int%26amp%3Bnbsp%3B%26lt%3B%2Fdiv%26gt%3B%22%20style%3D%22text%3BstrokeColor%3Dnone%3BfillColor%3Dnone%3Balign%3Dleft%3BverticalAlign%3Dtop%3BspacingLeft%3D4%3BspacingRight%3D4%3Boverflow%3Dhidden%3Brotatable%3D0%3Bpoints%3D%5B%5B0%2C0.5%5D%2C%5B1%2C0.5%5D%5D%3BportConstraint%3Deastwest%3BwhiteSpace%3Dwrap%3Bhtml%3D1%3B%22%20vertex%3D%221%22%20parent%3D%222%22%3E%3CmxGeometry%20y%3D%2226%22%20width%3D%22310%22%20height%3D%2226%22%20as%3D%22geometry%22%2F%3E%3C%2FmxCell%3E%3CmxCell%20id%3D%224%22%20value%3D%22%26lt%3Bdiv%20style%3D%26quot%3Btext-align%3A%20center%3B%26quot%3B%26gt%3B-%20nome%3A%20String%26amp%3Bnbsp%3B%26lt%3B%2Fdiv%26gt%3B%22%20style%3D%22text%3BstrokeColor%3Dnone%3BfillColor%3Dnone%3Balign%3Dleft%3BverticalAlign%3Dtop%3BspacingLeft%3D4%3BspacingRight%3D4%3Boverflow%3Dhidden%3Brotatable%3D0%3Bpoints%3D%5B%5B0%2C0.5%5D%2C%5B1%2C0.5%5D%5D%3BportConstraint%3Deastwest%3BwhiteSpace%3Dwrap%3Bhtml%3D1%3B%22%20vertex%3D%221%22%20parent%3D%222%22%3E%3CmxGeometry%20y%3D%2252%22%20width%3D%22310%22%20height%3D%2226%22%20as%3D%22geometry%22%2F%3E%3C%2FmxCell%3E%3CmxCell%20id%3D%225%22%20value%3D%22%22%20style%3D%22line%3BstrokeWidth%3D1%3BfillColor%3Dnone%3Balign%3Dleft%3BverticalAlign%3Dmiddle%3BspacingTop%3D-1%3BspacingLeft%3D3%3BspacingRight%3D3%3Brotatable%3D0%3BlabelPosition%3Dright%3Bpoints%3D%5B%5D%3BportConstraint%3Deastwest%3BstrokeColor%3Dinherit%3B%22%20vertex%3D%221%22%20parent%3D%222%22%3E%3CmxGeometry%20y%3D%2278%22%20width%3D%22310%22%20height%3D%228%22%20as%3D%22geometry%22%2F%3E%3C%2FmxCell%3E%3CmxCell%20id%3D%226%22%20value%3D%22%26lt%3Bb%26gt%3B%2B%20Categoria(id%3A%20int%2C%20nome%3A%20String)%26amp%3Bnbsp%3B%26lt%3B%2Fb%26gt%3B%22%20style%3D%22text%3BstrokeColor%3Dnone%3BfillColor%3Dnone%3Balign%3Dleft%3BverticalAlign%3Dtop%3BspacingLeft%3D4%3BspacingRight%3D4%3Boverflow%3Dhidden%3Brotatable%3D0%3Bpoints%3D%5B%5B0%2C0.5%5D%2C%5B1%2C0.5%5D%5D%3BportConstraint%3Deastwest%3BwhiteSpace%3Dwrap%3Bhtml%3D1%3B%22%20vertex%3D%221%22%20parent%3D%222%22%3E%3CmxGeometry%20y%3D%2286%22%20width%3D%22310%22%20height%3D%2224%22%20as%3D%22geometry%22%2F%3E%3C%2FmxCell%3E%3CmxCell%20id%3D%227%22%20value%3D%22%2B%20getId()%3A%20int%26amp%3Bnbsp%3B%22%20style%3D%22text%3BstrokeColor%3Dnone%3BfillColor%3Dnone%3Balign%3Dleft%3BverticalAlign%3Dtop%3BspacingLeft%3D4%3BspacingRight%3D4%3Boverflow%3Dhidden%3Brotatable%3D0%3Bpoints%3D%5B%5B0%2C0.5%5D%2C%5B1%2C0.5%5D%5D%3BportConstraint%3Deastwest%3BwhiteSpace%3Dwrap%3Bhtml%3D1%3B%22%20vertex%3D%221%22%20parent%3D%222%22%3E%3CmxGeometry%20y%3D%22110%22%20width%3D%22310%22%20height%3D%2226%22%20as%3D%22geometry%22%2F%3E%3C%2FmxCell%3E%3CmxCell%20id%3D%228%22%20value%3D%22%26lt%3Bdiv%20style%3D%26quot%3Bfont-family%3A%20Tahoma%3B%20text-align%3A%20center%3B%26quot%3B%26gt%3B%2B%20getNome()%3A%20String%26amp%3Bnbsp%3B%26lt%3B%2Fdiv%26gt%3B%22%20style%3D%22text%3BstrokeColor%3Dnone%3BfillColor%3Dnone%3Balign%3Dleft%3BverticalAlign%3Dtop%3BspacingLeft%3D4%3BspacingRight%3D4%3Boverflow%3Dhidden%3Brotatable%3D0%3Bpoints%3D%5B%5B0%2C0.5%5D%2C%5B1%2C0.5%5D%5D%3BportConstraint%3Deastwest%3BwhiteSpace%3Dwrap%3Bhtml%3D1%3B%22%20vertex%3D%221%22%20parent%3D%222%22%3E%3CmxGeometry%20y%3D%22136%22%20width%3D%22310%22%20height%3D%2226%22%20as%3D%22geometry%22%2F%3E%3C%2FmxCell%3E%3CmxCell%20id%3D%229%22%20value%3D%22%26lt%3Bdiv%20style%3D%26quot%3Bfont-family%3A%20Tahoma%3B%20text-align%3A%20center%3B%26quot%3B%26gt%3B%2B%20setNome(nome%3A%20String)%3A%20void%26amp%3Bnbsp%3B%26lt%3B%2Fdiv%26gt%3B%22%20style%3D%22text%3BstrokeColor%3Dnone%3BfillColor%3Dnone%3Balign%3Dleft%3BverticalAlign%3Dtop%3BspacingLeft%3D4%3BspacingRight%3D4%3Boverflow%3Dhidden%3Brotatable%3D0%3Bpoints%3D%5B%5B0%2C0.5%5D%2C%5B1%2C0.5%5D%5D%3BportConstraint%3Deastwest%3BwhiteSpace%3Dwrap%3Bhtml%3D1%3B%22%20vertex%3D%221%22%20parent%3D%222%22%3E%3CmxGeometry%20y%3D%22162%22%20width%3D%22310%22%20height%3D%2226%22%20as%3D%22geometry%22%2F%3E%3C%2FmxCell%3E%3C%2Froot%3E%3C%2FmxGraphModel%3E&lt;/span&gt;&lt;/div&gt;" style="text;strokeColor=none;fillColor=none;align=left;verticalAlign=top;spacingLeft=4;spacingRight=4;overflow=hidden;rotatable=0;points=[[0,0.5],[1,0.5]];portConstraint=eastwest;whiteSpace=wrap;html=1;" parent="Z9lGx5DGAonohV33fbXT-110" vertex="1">
          <mxGeometry y="52" width="380" height="26" as="geometry" />
        </mxCell>
        <mxCell id="Z9lGx5DGAonohV33fbXT-113" value="&lt;div style=&quot;text-align: center;&quot;&gt;- produto: Produto&lt;/div&gt;" style="text;strokeColor=none;fillColor=none;align=left;verticalAlign=top;spacingLeft=4;spacingRight=4;overflow=hidden;rotatable=0;points=[[0,0.5],[1,0.5]];portConstraint=eastwest;whiteSpace=wrap;html=1;" parent="Z9lGx5DGAonohV33fbXT-110" vertex="1">
          <mxGeometry y="78" width="380" height="26" as="geometry" />
        </mxCell>
        <mxCell id="Z9lGx5DGAonohV33fbXT-114" value="&lt;div style=&quot;text-align: center;&quot;&gt;- quantidade: int&lt;/div&gt;" style="text;strokeColor=none;fillColor=none;align=left;verticalAlign=top;spacingLeft=4;spacingRight=4;overflow=hidden;rotatable=0;points=[[0,0.5],[1,0.5]];portConstraint=eastwest;whiteSpace=wrap;html=1;" parent="Z9lGx5DGAonohV33fbXT-110" vertex="1">
          <mxGeometry y="104" width="380" height="26" as="geometry" />
        </mxCell>
        <mxCell id="Z9lGx5DGAonohV33fbXT-115" value="" style="line;strokeWidth=1;fillColor=none;align=left;verticalAlign=middle;spacingTop=-1;spacingLeft=3;spacingRight=3;rotatable=0;labelPosition=right;points=[];portConstraint=eastwest;strokeColor=inherit;" parent="Z9lGx5DGAonohV33fbXT-110" vertex="1">
          <mxGeometry y="130" width="380" height="8" as="geometry" />
        </mxCell>
        <mxCell id="Z9lGx5DGAonohV33fbXT-116" value="+ MovimentoEstoque(id: int, data: Date,&lt;br/&gt;                   produto: Produto, quantidade: int)" style="text;strokeColor=none;fillColor=none;align=left;verticalAlign=top;spacingLeft=4;spacingRight=4;overflow=hidden;rotatable=0;points=[[0,0.5],[1,0.5]];portConstraint=eastwest;whiteSpace=wrap;html=1;" parent="Z9lGx5DGAonohV33fbXT-110" vertex="1">
          <mxGeometry y="138" width="380" height="42" as="geometry" />
        </mxCell>
        <mxCell id="Z9lGx5DGAonohV33fbXT-117" value="+ abstract processarMovimento(): void&lt;div&gt;&lt;br/&gt;&lt;/div&gt;" style="text;strokeColor=none;fillColor=none;align=left;verticalAlign=top;spacingLeft=4;spacingRight=4;overflow=hidden;rotatable=0;points=[[0,0.5],[1,0.5]];portConstraint=eastwest;whiteSpace=wrap;html=1;" parent="Z9lGx5DGAonohV33fbXT-110" vertex="1">
          <mxGeometry y="180" width="380" height="26" as="geometry" />
        </mxCell>
        <mxCell id="Z9lGx5DGAonohV33fbXT-118" value="&lt;div style=&quot;font-family: Tahoma; text-align: center;&quot;&gt;+ getId(): int&lt;br/&gt;&lt;/div&gt;" style="text;strokeColor=none;fillColor=none;align=left;verticalAlign=top;spacingLeft=4;spacingRight=4;overflow=hidden;rotatable=0;points=[[0,0.5],[1,0.5]];portConstraint=eastwest;whiteSpace=wrap;html=1;" parent="Z9lGx5DGAonohV33fbXT-110" vertex="1">
          <mxGeometry y="206" width="380" height="26" as="geometry" />
        </mxCell>
        <mxCell id="Z9lGx5DGAonohV33fbXT-119" value="&lt;div style=&quot;font-family: Tahoma; text-align: center;&quot;&gt;+ getData(): Date&lt;br/&gt;&lt;br&gt;&lt;/div&gt;" style="text;strokeColor=none;fillColor=none;align=left;verticalAlign=top;spacingLeft=4;spacingRight=4;overflow=hidden;rotatable=0;points=[[0,0.5],[1,0.5]];portConstraint=eastwest;whiteSpace=wrap;html=1;" parent="Z9lGx5DGAonohV33fbXT-110" vertex="1">
          <mxGeometry y="232" width="380" height="26" as="geometry" />
        </mxCell>
        <mxCell id="Z9lGx5DGAonohV33fbXT-120" value="&lt;div style=&quot;font-family: Tahoma; text-align: center;&quot;&gt;+ getProduto(): Produto&lt;br/&gt;&lt;br&gt;&lt;/div&gt;" style="text;strokeColor=none;fillColor=none;align=left;verticalAlign=top;spacingLeft=4;spacingRight=4;overflow=hidden;rotatable=0;points=[[0,0.5],[1,0.5]];portConstraint=eastwest;whiteSpace=wrap;html=1;" parent="Z9lGx5DGAonohV33fbXT-110" vertex="1">
          <mxGeometry y="258" width="380" height="26" as="geometry" />
        </mxCell>
        <mxCell id="Z9lGx5DGAonohV33fbXT-121" value="&lt;div style=&quot;font-family: Tahoma; text-align: center;&quot;&gt;+ getQuantidade(): int&amp;nbsp;&lt;/div&gt;" style="text;strokeColor=none;fillColor=none;align=left;verticalAlign=top;spacingLeft=4;spacingRight=4;overflow=hidden;rotatable=0;points=[[0,0.5],[1,0.5]];portConstraint=eastwest;whiteSpace=wrap;html=1;" parent="Z9lGx5DGAonohV33fbXT-110" vertex="1">
          <mxGeometry y="284" width="380" height="26" as="geometry" />
        </mxCell>
        <mxCell id="uyS_uUgnwMnRfeJm0ZjL-7" style="edgeStyle=orthogonalEdgeStyle;rounded=0;orthogonalLoop=1;jettySize=auto;html=1;exitX=0.5;exitY=0;exitDx=0;exitDy=0;entryX=0.5;entryY=1;entryDx=0;entryDy=0;endArrow=blockThin;endFill=0;" edge="1" parent="Z9lGx5DGAonohV33fbXT-1" source="Z9lGx5DGAonohV33fbXT-122" target="Z9lGx5DGAonohV33fbXT-110">
          <mxGeometry relative="1" as="geometry" />
        </mxCell>
        <mxCell id="Z9lGx5DGAonohV33fbXT-122" value="SaidaEstoque" style="swimlane;fontStyle=1;align=center;verticalAlign=top;childLayout=stackLayout;horizontal=1;startSize=26;horizontalStack=0;resizeParent=1;resizeParentMax=0;resizeLast=0;collapsible=1;marginBottom=0;whiteSpace=wrap;html=1;" parent="Z9lGx5DGAonohV33fbXT-1" vertex="1" collapsed="1">
          <mxGeometry x="-2540" y="-1580" width="110" height="30" as="geometry">
            <mxRectangle x="-2550" y="-720" width="310" height="152" as="alternateBounds" />
          </mxGeometry>
        </mxCell>
        <mxCell id="Z9lGx5DGAonohV33fbXT-123" value="&lt;div style=&quot;text-align: center;&quot;&gt;- motivo: String&lt;/div&gt;" style="text;strokeColor=none;fillColor=none;align=left;verticalAlign=top;spacingLeft=4;spacingRight=4;overflow=hidden;rotatable=0;points=[[0,0.5],[1,0.5]];portConstraint=eastwest;whiteSpace=wrap;html=1;" parent="Z9lGx5DGAonohV33fbXT-122" vertex="1">
          <mxGeometry y="26" width="310" height="26" as="geometry" />
        </mxCell>
        <mxCell id="Z9lGx5DGAonohV33fbXT-124" value="" style="line;strokeWidth=1;fillColor=none;align=left;verticalAlign=middle;spacingTop=-1;spacingLeft=3;spacingRight=3;rotatable=0;labelPosition=right;points=[];portConstraint=eastwest;strokeColor=inherit;" parent="Z9lGx5DGAonohV33fbXT-122" vertex="1">
          <mxGeometry y="52" width="310" height="8" as="geometry" />
        </mxCell>
        <mxCell id="Z9lGx5DGAonohV33fbXT-125" value="&lt;b&gt;+ SaidaEstoque (id: int, data: Date, produto: Produto quantidade: int, motivo: String)&amp;nbsp;&lt;/b&gt;" style="text;strokeColor=none;fillColor=none;align=left;verticalAlign=top;spacingLeft=4;spacingRight=4;overflow=hidden;rotatable=0;points=[[0,0.5],[1,0.5]];portConstraint=eastwest;whiteSpace=wrap;html=1;" parent="Z9lGx5DGAonohV33fbXT-122" vertex="1">
          <mxGeometry y="60" width="310" height="40" as="geometry" />
        </mxCell>
        <mxCell id="Z9lGx5DGAonohV33fbXT-126" value=" + processarMovimento(): void" style="text;strokeColor=none;fillColor=none;align=left;verticalAlign=top;spacingLeft=4;spacingRight=4;overflow=hidden;rotatable=0;points=[[0,0.5],[1,0.5]];portConstraint=eastwest;whiteSpace=wrap;html=1;" parent="Z9lGx5DGAonohV33fbXT-122" vertex="1">
          <mxGeometry y="100" width="310" height="26" as="geometry" />
        </mxCell>
        <mxCell id="Z9lGx5DGAonohV33fbXT-127" value="&lt;div style=&quot;font-family: Tahoma; text-align: center;&quot;&gt; + getMotivo(): String&lt;/div&gt;" style="text;strokeColor=none;fillColor=none;align=left;verticalAlign=top;spacingLeft=4;spacingRight=4;overflow=hidden;rotatable=0;points=[[0,0.5],[1,0.5]];portConstraint=eastwest;whiteSpace=wrap;html=1;" parent="Z9lGx5DGAonohV33fbXT-122" vertex="1">
          <mxGeometry y="126" width="310" height="26" as="geometry" />
        </mxCell>
        <mxCell id="OhTa74_4i65CO28549iB-3" style="edgeStyle=orthogonalEdgeStyle;rounded=0;orthogonalLoop=1;jettySize=auto;html=1;exitX=0.5;exitY=1;exitDx=0;exitDy=0;endArrow=diamondThin;endFill=0;" edge="1" parent="Z9lGx5DGAonohV33fbXT-1" source="Z9lGx5DGAonohV33fbXT-130" target="Z9lGx5DGAonohV33fbXT-69">
          <mxGeometry relative="1" as="geometry" />
        </mxCell>
        <mxCell id="OhTa74_4i65CO28549iB-5" style="edgeStyle=orthogonalEdgeStyle;rounded=0;orthogonalLoop=1;jettySize=auto;html=1;exitX=0.5;exitY=1;exitDx=0;exitDy=0;entryX=0.5;entryY=0;entryDx=0;entryDy=0;endArrow=diamondThin;endFill=0;" edge="1" parent="Z9lGx5DGAonohV33fbXT-1" source="Z9lGx5DGAonohV33fbXT-130" target="Z9lGx5DGAonohV33fbXT-56">
          <mxGeometry relative="1" as="geometry" />
        </mxCell>
        <mxCell id="OhTa74_4i65CO28549iB-6" style="edgeStyle=orthogonalEdgeStyle;rounded=0;orthogonalLoop=1;jettySize=auto;html=1;exitX=0.5;exitY=1;exitDx=0;exitDy=0;entryX=0.5;entryY=0;entryDx=0;entryDy=0;endArrow=diamondThin;endFill=0;" edge="1" parent="Z9lGx5DGAonohV33fbXT-1" source="Z9lGx5DGAonohV33fbXT-130" target="Z9lGx5DGAonohV33fbXT-95">
          <mxGeometry relative="1" as="geometry" />
        </mxCell>
        <mxCell id="OhTa74_4i65CO28549iB-7" style="edgeStyle=orthogonalEdgeStyle;rounded=0;orthogonalLoop=1;jettySize=auto;html=1;exitX=0.5;exitY=1;exitDx=0;exitDy=0;entryX=0.5;entryY=0;entryDx=0;entryDy=0;endArrow=diamondThin;endFill=0;" edge="1" parent="Z9lGx5DGAonohV33fbXT-1" source="Z9lGx5DGAonohV33fbXT-130" target="Z9lGx5DGAonohV33fbXT-110">
          <mxGeometry relative="1" as="geometry" />
        </mxCell>
        <mxCell id="Z9lGx5DGAonohV33fbXT-130" value="GerenciadordeDados" style="swimlane;fontStyle=1;align=center;verticalAlign=top;childLayout=stackLayout;horizontal=1;startSize=40;horizontalStack=0;resizeParent=1;resizeParentMax=0;resizeLast=0;collapsible=1;marginBottom=0;whiteSpace=wrap;html=1;" parent="Z9lGx5DGAonohV33fbXT-1" vertex="1" collapsed="1">
          <mxGeometry x="-3000" y="-1960" width="160" height="40" as="geometry">
            <mxRectangle x="-3000" y="-1910" width="420" height="660" as="alternateBounds" />
          </mxGeometry>
        </mxCell>
        <mxCell id="Z9lGx5DGAonohV33fbXT-131" value="&lt;div style=&quot;text-align: center;&quot;&gt;- produtos: List&amp;lt;Produto&amp;gt;&lt;br/&gt;&lt;/div&gt;" style="text;strokeColor=none;fillColor=none;align=left;verticalAlign=top;spacingLeft=4;spacingRight=4;overflow=hidden;rotatable=0;points=[[0,0.5],[1,0.5]];portConstraint=eastwest;whiteSpace=wrap;html=1;" parent="Z9lGx5DGAonohV33fbXT-130" vertex="1">
          <mxGeometry y="40" width="420" height="26" as="geometry" />
        </mxCell>
        <mxCell id="Z9lGx5DGAonohV33fbXT-132" value="&lt;div style=&quot;text-align: center;&quot;&gt;- fornecedores: List&amp;lt;Fornecedor&amp;gt;&lt;br/&gt;&lt;br&gt;&lt;/div&gt;" style="text;strokeColor=none;fillColor=none;align=left;verticalAlign=top;spacingLeft=4;spacingRight=4;overflow=hidden;rotatable=0;points=[[0,0.5],[1,0.5]];portConstraint=eastwest;whiteSpace=wrap;html=1;" parent="Z9lGx5DGAonohV33fbXT-130" vertex="1">
          <mxGeometry y="66" width="420" height="26" as="geometry" />
        </mxCell>
        <mxCell id="Z9lGx5DGAonohV33fbXT-133" value="&lt;div style=&quot;text-align: center;&quot;&gt;- categorias: List&amp;lt;Categoria&amp;gt;&lt;br/&gt;&lt;br&gt;&lt;/div&gt;" style="text;strokeColor=none;fillColor=none;align=left;verticalAlign=top;spacingLeft=4;spacingRight=4;overflow=hidden;rotatable=0;points=[[0,0.5],[1,0.5]];portConstraint=eastwest;whiteSpace=wrap;html=1;" parent="Z9lGx5DGAonohV33fbXT-130" vertex="1">
          <mxGeometry y="92" width="420" height="26" as="geometry" />
        </mxCell>
        <mxCell id="Z9lGx5DGAonohV33fbXT-134" value="&lt;div style=&quot;text-align: center;&quot;&gt;- historicoDeMovimentos: List&amp;lt;MovimentoEstoque&amp;gt;&lt;br/&gt;&lt;br&gt;&lt;/div&gt;" style="text;strokeColor=none;fillColor=none;align=left;verticalAlign=top;spacingLeft=4;spacingRight=4;overflow=hidden;rotatable=0;points=[[0,0.5],[1,0.5]];portConstraint=eastwest;whiteSpace=wrap;html=1;" parent="Z9lGx5DGAonohV33fbXT-130" vertex="1">
          <mxGeometry y="118" width="420" height="26" as="geometry" />
        </mxCell>
        <mxCell id="Z9lGx5DGAonohV33fbXT-135" value="" style="line;strokeWidth=1;fillColor=none;align=left;verticalAlign=middle;spacingTop=-1;spacingLeft=3;spacingRight=3;rotatable=0;labelPosition=right;points=[];portConstraint=eastwest;strokeColor=inherit;" parent="Z9lGx5DGAonohV33fbXT-130" vertex="1">
          <mxGeometry y="144" width="420" height="8" as="geometry" />
        </mxCell>
        <mxCell id="Z9lGx5DGAonohV33fbXT-136" value="&lt;font style=&quot;font-size: 13px;&quot;&gt;+ GerenciadorDeDados()&lt;br/&gt;&lt;/font&gt;" style="text;strokeColor=none;fillColor=none;align=left;verticalAlign=top;spacingLeft=4;spacingRight=4;overflow=hidden;rotatable=0;points=[[0,0.5],[1,0.5]];portConstraint=eastwest;whiteSpace=wrap;html=1;" parent="Z9lGx5DGAonohV33fbXT-130" vertex="1">
          <mxGeometry y="152" width="420" height="32" as="geometry" />
        </mxCell>
        <mxCell id="Z9lGx5DGAonohV33fbXT-137" value="+ cadastrarProduto(novoProduto: Produto): void&lt;div&gt;&lt;br/&gt;&lt;/div&gt;" style="text;strokeColor=none;fillColor=none;align=left;verticalAlign=top;spacingLeft=4;spacingRight=4;overflow=hidden;rotatable=0;points=[[0,0.5],[1,0.5]];portConstraint=eastwest;whiteSpace=wrap;html=1;" parent="Z9lGx5DGAonohV33fbXT-130" vertex="1">
          <mxGeometry y="184" width="420" height="26" as="geometry" />
        </mxCell>
        <mxCell id="Z9lGx5DGAonohV33fbXT-138" value="&lt;div style=&quot;font-family: Tahoma; text-align: center;&quot;&gt;+ consultarProduto(id: int): Produto&lt;br/&gt;&lt;/div&gt;" style="text;strokeColor=none;fillColor=none;align=left;verticalAlign=top;spacingLeft=4;spacingRight=4;overflow=hidden;rotatable=0;points=[[0,0.5],[1,0.5]];portConstraint=eastwest;whiteSpace=wrap;html=1;" parent="Z9lGx5DGAonohV33fbXT-130" vertex="1">
          <mxGeometry y="210" width="420" height="26" as="geometry" />
        </mxCell>
        <mxCell id="Z9lGx5DGAonohV33fbXT-139" value="&lt;div style=&quot;font-family: Tahoma; text-align: center;&quot;&gt;+ atualizarProduto(id: int, dadosAtualizados: Produto): void&lt;br/&gt;&lt;br&gt;&lt;/div&gt;" style="text;strokeColor=none;fillColor=none;align=left;verticalAlign=top;spacingLeft=4;spacingRight=4;overflow=hidden;rotatable=0;points=[[0,0.5],[1,0.5]];portConstraint=eastwest;whiteSpace=wrap;html=1;" parent="Z9lGx5DGAonohV33fbXT-130" vertex="1">
          <mxGeometry y="236" width="420" height="26" as="geometry" />
        </mxCell>
        <mxCell id="Z9lGx5DGAonohV33fbXT-140" value="&lt;div style=&quot;font-family: Tahoma; text-align: center;&quot;&gt;+ removerProduto(id: int): void&lt;br/&gt;&lt;br&gt;&lt;/div&gt;" style="text;strokeColor=none;fillColor=none;align=left;verticalAlign=top;spacingLeft=4;spacingRight=4;overflow=hidden;rotatable=0;points=[[0,0.5],[1,0.5]];portConstraint=eastwest;whiteSpace=wrap;html=1;" parent="Z9lGx5DGAonohV33fbXT-130" vertex="1">
          <mxGeometry y="262" width="420" height="26" as="geometry" />
        </mxCell>
        <mxCell id="Z9lGx5DGAonohV33fbXT-141" value="&lt;div style=&quot;font-family: Tahoma; text-align: center;&quot;&gt;+ + cadastrarFornecedor(novoFornecedor: Fornecedor): void&lt;br&gt;&lt;br&gt;&lt;/div&gt;" style="text;strokeColor=none;fillColor=none;align=left;verticalAlign=top;spacingLeft=4;spacingRight=4;overflow=hidden;rotatable=0;points=[[0,0.5],[1,0.5]];portConstraint=eastwest;whiteSpace=wrap;html=1;" parent="Z9lGx5DGAonohV33fbXT-130" vertex="1">
          <mxGeometry y="288" width="420" height="26" as="geometry" />
        </mxCell>
        <mxCell id="Z9lGx5DGAonohV33fbXT-142" value="&lt;div style=&quot;font-family: Tahoma; text-align: center;&quot;&gt;+ consultarFornecedor(id: int): Fornecedor&lt;/div&gt;" style="text;strokeColor=none;fillColor=none;align=left;verticalAlign=top;spacingLeft=4;spacingRight=4;overflow=hidden;rotatable=0;points=[[0,0.5],[1,0.5]];portConstraint=eastwest;whiteSpace=wrap;html=1;" parent="Z9lGx5DGAonohV33fbXT-130" vertex="1">
          <mxGeometry y="314" width="420" height="26" as="geometry" />
        </mxCell>
        <mxCell id="Z9lGx5DGAonohV33fbXT-143" value="&lt;div style=&quot;font-family: Tahoma; text-align: center;&quot;&gt;+ atualizarFornecedor(id: int, dadosAtualizados: Fornecedor): void&amp;nbsp;&lt;/div&gt;" style="text;strokeColor=none;fillColor=none;align=left;verticalAlign=top;spacingLeft=4;spacingRight=4;overflow=hidden;rotatable=0;points=[[0,0.5],[1,0.5]];portConstraint=eastwest;whiteSpace=wrap;html=1;" parent="Z9lGx5DGAonohV33fbXT-130" vertex="1">
          <mxGeometry y="340" width="420" height="26" as="geometry" />
        </mxCell>
        <mxCell id="Z9lGx5DGAonohV33fbXT-144" value="&lt;div style=&quot;font-family: Tahoma; text-align: center;&quot;&gt;+ removerFornecedor(id: int): void&amp;nbsp;&lt;/div&gt;" style="text;strokeColor=none;fillColor=none;align=left;verticalAlign=top;spacingLeft=4;spacingRight=4;overflow=hidden;rotatable=0;points=[[0,0.5],[1,0.5]];portConstraint=eastwest;whiteSpace=wrap;html=1;" parent="Z9lGx5DGAonohV33fbXT-130" vertex="1">
          <mxGeometry y="366" width="420" height="26" as="geometry" />
        </mxCell>
        <mxCell id="Z9lGx5DGAonohV33fbXT-145" value="&lt;div style=&quot;font-family: Tahoma; text-align: center;&quot;&gt;+ cadastrarCategoria(novaCategoria: Categoria): void&lt;/div&gt;" style="text;strokeColor=none;fillColor=none;align=left;verticalAlign=top;spacingLeft=4;spacingRight=4;overflow=hidden;rotatable=0;points=[[0,0.5],[1,0.5]];portConstraint=eastwest;whiteSpace=wrap;html=1;" parent="Z9lGx5DGAonohV33fbXT-130" vertex="1">
          <mxGeometry y="392" width="420" height="26" as="geometry" />
        </mxCell>
        <mxCell id="Z9lGx5DGAonohV33fbXT-146" value="&lt;div style=&quot;font-family: Tahoma; text-align: center;&quot;&gt;&amp;nbsp;+ consultarCategoria(id: int): Categoria&lt;br/&gt;&lt;/div&gt;" style="text;strokeColor=none;fillColor=none;align=left;verticalAlign=top;spacingLeft=4;spacingRight=4;overflow=hidden;rotatable=0;points=[[0,0.5],[1,0.5]];portConstraint=eastwest;whiteSpace=wrap;html=1;" parent="Z9lGx5DGAonohV33fbXT-130" vertex="1">
          <mxGeometry y="418" width="420" height="26" as="geometry" />
        </mxCell>
        <mxCell id="Z9lGx5DGAonohV33fbXT-147" value="&lt;div style=&quot;font-family: Tahoma; text-align: center;&quot;&gt;+ atualizarCategoria(id: int, dadosAtualizados: Categoria): void&lt;br/&gt;&lt;br&gt;&lt;/div&gt;" style="text;strokeColor=none;fillColor=none;align=left;verticalAlign=top;spacingLeft=4;spacingRight=4;overflow=hidden;rotatable=0;points=[[0,0.5],[1,0.5]];portConstraint=eastwest;whiteSpace=wrap;html=1;" parent="Z9lGx5DGAonohV33fbXT-130" vertex="1">
          <mxGeometry y="444" width="420" height="26" as="geometry" />
        </mxCell>
        <mxCell id="Z9lGx5DGAonohV33fbXT-148" value="&lt;div style=&quot;font-family: Tahoma; text-align: center;&quot;&gt;+ removerCategoria(id: int): void&lt;/div&gt;" style="text;strokeColor=none;fillColor=none;align=left;verticalAlign=top;spacingLeft=4;spacingRight=4;overflow=hidden;rotatable=0;points=[[0,0.5],[1,0.5]];portConstraint=eastwest;whiteSpace=wrap;html=1;" parent="Z9lGx5DGAonohV33fbXT-130" vertex="1">
          <mxGeometry y="470" width="420" height="26" as="geometry" />
        </mxCell>
        <mxCell id="Z9lGx5DGAonohV33fbXT-149" value="&lt;div style=&quot;font-family: Tahoma; text-align: center;&quot;&gt;+ registrarEntrada(entrada: EntradaEstoque): void&lt;br/&gt;&lt;br&gt;&lt;/div&gt;" style="text;strokeColor=none;fillColor=none;align=left;verticalAlign=top;spacingLeft=4;spacingRight=4;overflow=hidden;rotatable=0;points=[[0,0.5],[1,0.5]];portConstraint=eastwest;whiteSpace=wrap;html=1;" parent="Z9lGx5DGAonohV33fbXT-130" vertex="1">
          <mxGeometry y="496" width="420" height="26" as="geometry" />
        </mxCell>
        <mxCell id="Z9lGx5DGAonohV33fbXT-150" value="&lt;div style=&quot;font-family: Tahoma; text-align: center;&quot;&gt;+ registrarSaida(saida: SaidaEstoque): void&amp;nbsp;&lt;/div&gt;" style="text;strokeColor=none;fillColor=none;align=left;verticalAlign=top;spacingLeft=4;spacingRight=4;overflow=hidden;rotatable=0;points=[[0,0.5],[1,0.5]];portConstraint=eastwest;whiteSpace=wrap;html=1;" parent="Z9lGx5DGAonohV33fbXT-130" vertex="1">
          <mxGeometry y="522" width="420" height="26" as="geometry" />
        </mxCell>
        <mxCell id="Z9lGx5DGAonohV33fbXT-151" value="&lt;div style=&quot;font-family: Tahoma; text-align: center;&quot;&gt;+ getTotalDeItensPorCategoria(nomeCategoria: String): int&lt;br/&gt;&lt;/div&gt;" style="text;strokeColor=none;fillColor=none;align=left;verticalAlign=top;spacingLeft=4;spacingRight=4;overflow=hidden;rotatable=0;points=[[0,0.5],[1,0.5]];portConstraint=eastwest;whiteSpace=wrap;html=1;" parent="Z9lGx5DGAonohV33fbXT-130" vertex="1">
          <mxGeometry y="548" width="420" height="26" as="geometry" />
        </mxCell>
        <mxCell id="Z9lGx5DGAonohV33fbXT-152" value="&lt;div style=&quot;font-family: Tahoma; text-align: center;&quot;&gt;+ gerarAlertaDeEstoqueMinimo(): List&amp;lt;Produto&amp;gt;&lt;br/&gt;&lt;/div&gt;" style="text;strokeColor=none;fillColor=none;align=left;verticalAlign=top;spacingLeft=4;spacingRight=4;overflow=hidden;rotatable=0;points=[[0,0.5],[1,0.5]];portConstraint=eastwest;whiteSpace=wrap;html=1;" parent="Z9lGx5DGAonohV33fbXT-130" vertex="1">
          <mxGeometry y="574" width="420" height="26" as="geometry" />
        </mxCell>
        <mxCell id="Z9lGx5DGAonohV33fbXT-153" value="&lt;div style=&quot;font-family: Tahoma; text-align: center;&quot;&gt;+ getTotalDeItens(nomeCategoria: String, nomeFornecedor: String): int&lt;br/&gt;&lt;/div&gt;" style="text;strokeColor=none;fillColor=none;align=left;verticalAlign=top;spacingLeft=4;spacingRight=4;overflow=hidden;rotatable=0;points=[[0,0.5],[1,0.5]];portConstraint=eastwest;whiteSpace=wrap;html=1;" parent="Z9lGx5DGAonohV33fbXT-130" vertex="1">
          <mxGeometry y="600" width="420" height="26" as="geometry" />
        </mxCell>
        <mxCell id="Z9lGx5DGAonohV33fbXT-154" value="&lt;div style=&quot;font-family: Tahoma; text-align: center;&quot;&gt;&lt;br&gt;&lt;/div&gt;" style="text;strokeColor=none;fillColor=none;align=left;verticalAlign=top;spacingLeft=4;spacingRight=4;overflow=hidden;rotatable=0;points=[[0,0.5],[1,0.5]];portConstraint=eastwest;whiteSpace=wrap;html=1;" parent="Z9lGx5DGAonohV33fbXT-130" vertex="1">
          <mxGeometry y="626" width="420" height="8" as="geometry" />
        </mxCell>
        <mxCell id="Z9lGx5DGAonohV33fbXT-155" value="&lt;div style=&quot;font-family: Tahoma; text-align: center;&quot;&gt;+ getPrecoDeVenda(produto: Produto, fornecedor: Fornecedor): double&lt;br&gt;&lt;/div&gt;" style="text;strokeColor=none;fillColor=none;align=left;verticalAlign=top;spacingLeft=4;spacingRight=4;overflow=hidden;rotatable=0;points=[[0,0.5],[1,0.5]];portConstraint=eastwest;whiteSpace=wrap;html=1;" parent="Z9lGx5DGAonohV33fbXT-130" vertex="1">
          <mxGeometry y="634" width="420" height="26" as="geometry" />
        </mxCell>
        <mxCell id="Z9lGx5DGAonohV33fbXT-156" value="&lt;span style=&quot;font-weight: 700;&quot;&gt;&amp;lt;&amp;lt;interface&amp;gt;&amp;gt;&lt;/span&gt;&lt;div style=&quot;font-weight: 700;&quot;&gt;Gerenciavel&lt;/div&gt;" style="swimlane;fontStyle=0;childLayout=stackLayout;horizontal=1;startSize=40;fillColor=none;horizontalStack=0;resizeParent=1;resizeParentMax=0;resizeLast=0;collapsible=1;marginBottom=0;whiteSpace=wrap;html=1;" parent="Z9lGx5DGAonohV33fbXT-1" vertex="1" collapsed="1">
          <mxGeometry x="-3155" y="-1900" width="120" height="40" as="geometry">
            <mxRectangle x="-3100" y="-1370" width="140" height="118" as="alternateBounds" />
          </mxGeometry>
        </mxCell>
        <mxCell id="Z9lGx5DGAonohV33fbXT-157" value="+ cadastrar(): void&lt;div&gt;&lt;br&gt;&lt;/div&gt;" style="text;strokeColor=none;fillColor=none;align=left;verticalAlign=top;spacingLeft=4;spacingRight=4;overflow=hidden;rotatable=0;points=[[0,0.5],[1,0.5]];portConstraint=eastwest;whiteSpace=wrap;html=1;" parent="Z9lGx5DGAonohV33fbXT-156" vertex="1">
          <mxGeometry y="40" width="140" height="26" as="geometry" />
        </mxCell>
        <mxCell id="Z9lGx5DGAonohV33fbXT-158" value="&lt;div&gt;+ atualizar(): void&lt;/div&gt;&lt;div&gt;&lt;br&gt;&lt;/div&gt;" style="text;strokeColor=none;fillColor=none;align=left;verticalAlign=top;spacingLeft=4;spacingRight=4;overflow=hidden;rotatable=0;points=[[0,0.5],[1,0.5]];portConstraint=eastwest;whiteSpace=wrap;html=1;" parent="Z9lGx5DGAonohV33fbXT-156" vertex="1">
          <mxGeometry y="66" width="140" height="26" as="geometry" />
        </mxCell>
        <mxCell id="Z9lGx5DGAonohV33fbXT-159" value="+ remover(): void" style="text;strokeColor=none;fillColor=none;align=left;verticalAlign=top;spacingLeft=4;spacingRight=4;overflow=hidden;rotatable=0;points=[[0,0.5],[1,0.5]];portConstraint=eastwest;whiteSpace=wrap;html=1;" parent="Z9lGx5DGAonohV33fbXT-156" vertex="1">
          <mxGeometry y="92" width="140" height="26" as="geometry" />
        </mxCell>
        <mxCell id="OhTa74_4i65CO28549iB-1" style="edgeStyle=orthogonalEdgeStyle;rounded=0;orthogonalLoop=1;jettySize=auto;html=1;exitX=1;exitY=0.5;exitDx=0;exitDy=0;entryX=0;entryY=0.5;entryDx=0;entryDy=0;dashed=1;" edge="1" parent="Z9lGx5DGAonohV33fbXT-1" source="nJwf4LoPZeOcfHCbHqdb-7" target="nJwf4LoPZeOcfHCbHqdb-20">
          <mxGeometry relative="1" as="geometry" />
        </mxCell>
        <mxCell id="nJwf4LoPZeOcfHCbHqdb-7" value="Main" style="swimlane;fontStyle=1;align=center;verticalAlign=top;childLayout=stackLayout;horizontal=1;startSize=26;horizontalStack=0;resizeParent=1;resizeParentMax=0;resizeLast=0;collapsible=1;marginBottom=0;whiteSpace=wrap;html=1;" collapsed="1" vertex="1" parent="Z9lGx5DGAonohV33fbXT-1">
          <mxGeometry x="-3338" y="-1955" width="70" height="30" as="geometry">
            <mxRectangle x="-3694" y="-1767" width="160" height="60" as="alternateBounds" />
          </mxGeometry>
        </mxCell>
        <mxCell id="nJwf4LoPZeOcfHCbHqdb-9" value="" style="line;strokeWidth=1;fillColor=none;align=left;verticalAlign=middle;spacingTop=-1;spacingLeft=3;spacingRight=3;rotatable=0;labelPosition=right;points=[];portConstraint=eastwest;strokeColor=inherit;" vertex="1" parent="nJwf4LoPZeOcfHCbHqdb-7">
          <mxGeometry y="26" width="160" height="8" as="geometry" />
        </mxCell>
        <mxCell id="nJwf4LoPZeOcfHCbHqdb-10" value="+ main(args: String[]): void&lt;div&gt;&lt;br/&gt;&lt;/div&gt;" style="text;strokeColor=none;fillColor=none;align=left;verticalAlign=top;spacingLeft=4;spacingRight=4;overflow=hidden;rotatable=0;points=[[0,0.5],[1,0.5]];portConstraint=eastwest;whiteSpace=wrap;html=1;" vertex="1" parent="nJwf4LoPZeOcfHCbHqdb-7">
          <mxGeometry y="34" width="160" height="26" as="geometry" />
        </mxCell>
        <mxCell id="OhTa74_4i65CO28549iB-2" style="edgeStyle=orthogonalEdgeStyle;rounded=0;orthogonalLoop=1;jettySize=auto;html=1;exitX=1;exitY=0.5;exitDx=0;exitDy=0;entryX=0;entryY=0.5;entryDx=0;entryDy=0;" edge="1" parent="Z9lGx5DGAonohV33fbXT-1" source="nJwf4LoPZeOcfHCbHqdb-20" target="Z9lGx5DGAonohV33fbXT-130">
          <mxGeometry relative="1" as="geometry">
            <mxPoint x="-3040" y="-1940.1304347826085" as="targetPoint" />
          </mxGeometry>
        </mxCell>
        <mxCell id="nJwf4LoPZeOcfHCbHqdb-20" value="MenuPrincipal" style="swimlane;fontStyle=1;align=center;verticalAlign=top;childLayout=stackLayout;horizontal=1;startSize=26;horizontalStack=0;resizeParent=1;resizeParentMax=0;resizeLast=0;collapsible=1;marginBottom=0;whiteSpace=wrap;html=1;" collapsed="1" vertex="1" parent="Z9lGx5DGAonohV33fbXT-1">
          <mxGeometry x="-3180" y="-1955" width="120" height="30" as="geometry">
            <mxRectangle x="-3260" y="-1895" width="160" height="196" as="alternateBounds" />
          </mxGeometry>
        </mxCell>
        <mxCell id="nJwf4LoPZeOcfHCbHqdb-21" value="- idProduto: int&lt;div&gt;&lt;br/&gt;&lt;/div&gt;" style="text;strokeColor=none;fillColor=none;align=left;verticalAlign=top;spacingLeft=4;spacingRight=4;overflow=hidden;rotatable=0;points=[[0,0.5],[1,0.5]];portConstraint=eastwest;whiteSpace=wrap;html=1;" vertex="1" parent="nJwf4LoPZeOcfHCbHqdb-20">
          <mxGeometry y="26" width="160" height="26" as="geometry" />
        </mxCell>
        <mxCell id="nJwf4LoPZeOcfHCbHqdb-6" value="- idFornecedor: int&lt;div&gt;&lt;br/&gt;&lt;/div&gt;" style="text;strokeColor=none;fillColor=none;align=left;verticalAlign=top;spacingLeft=4;spacingRight=4;overflow=hidden;rotatable=0;points=[[0,0.5],[1,0.5]];portConstraint=eastwest;whiteSpace=wrap;html=1;" vertex="1" parent="nJwf4LoPZeOcfHCbHqdb-20">
          <mxGeometry y="52" width="160" height="28" as="geometry" />
        </mxCell>
        <mxCell id="nJwf4LoPZeOcfHCbHqdb-13" value="- idCategoria: int" style="text;whiteSpace=wrap;html=1;" vertex="1" parent="nJwf4LoPZeOcfHCbHqdb-20">
          <mxGeometry y="80" width="160" height="30" as="geometry" />
        </mxCell>
        <mxCell id="nJwf4LoPZeOcfHCbHqdb-19" value="- idMovimento: int&lt;div&gt;&lt;br/&gt;&lt;/div&gt;" style="text;strokeColor=none;fillColor=none;align=left;verticalAlign=top;spacingLeft=4;spacingRight=4;overflow=hidden;rotatable=0;points=[[0,0.5],[1,0.5]];portConstraint=eastwest;whiteSpace=wrap;html=1;" vertex="1" parent="nJwf4LoPZeOcfHCbHqdb-20">
          <mxGeometry y="110" width="160" height="26" as="geometry" />
        </mxCell>
        <mxCell id="nJwf4LoPZeOcfHCbHqdb-24" value="- idMovimento: int&lt;div&gt;&lt;br/&gt;&lt;/div&gt;" style="text;strokeColor=none;fillColor=none;align=left;verticalAlign=top;spacingLeft=4;spacingRight=4;overflow=hidden;rotatable=0;points=[[0,0.5],[1,0.5]];portConstraint=eastwest;whiteSpace=wrap;html=1;" vertex="1" parent="nJwf4LoPZeOcfHCbHqdb-20">
          <mxGeometry y="136" width="160" height="26" as="geometry" />
        </mxCell>
        <mxCell id="nJwf4LoPZeOcfHCbHqdb-22" value="" style="line;strokeWidth=1;fillColor=none;align=left;verticalAlign=middle;spacingTop=-1;spacingLeft=3;spacingRight=3;rotatable=0;labelPosition=right;points=[];portConstraint=eastwest;strokeColor=inherit;" vertex="1" parent="nJwf4LoPZeOcfHCbHqdb-20">
          <mxGeometry y="162" width="160" height="8" as="geometry" />
        </mxCell>
        <mxCell id="nJwf4LoPZeOcfHCbHqdb-23" value="+ iniciar(): void&lt;div&gt;&lt;br/&gt;&lt;/div&gt;" style="text;strokeColor=none;fillColor=none;align=left;verticalAlign=top;spacingLeft=4;spacingRight=4;overflow=hidden;rotatable=0;points=[[0,0.5],[1,0.5]];portConstraint=eastwest;whiteSpace=wrap;html=1;" vertex="1" parent="nJwf4LoPZeOcfHCbHqdb-20">
          <mxGeometry y="170" width="160" height="26" as="geometry" />
        </mxCell>
      </root>
    </mxGraphModel>
  </diagram>
  <diagram name="Classes " id="oXol_E2dxa0iM9ga57Ne">
    <mxGraphModel grid="1" page="1" gridSize="10" guides="1" tooltips="1" connect="1" arrows="1" fold="1" pageScale="1" pageWidth="827" pageHeight="1169" math="0" shadow="0">
      <root>
        <mxCell id="0" />
        <mxCell id="1" parent="0" />
        <mxCell id="v_n894YwUTUf6LnE3mMy-19" value="Fornecimento" style="swimlane;fontStyle=1;align=center;verticalAlign=top;childLayout=stackLayout;horizontal=1;startSize=26;horizontalStack=0;resizeParent=1;resizeParentMax=0;resizeLast=0;collapsible=1;marginBottom=0;whiteSpace=wrap;html=1;" vertex="1" parent="1">
          <mxGeometry x="-2350" y="-1770" width="310" height="384" as="geometry">
            <mxRectangle x="-3000" y="-722" width="110" height="30" as="alternateBounds" />
          </mxGeometry>
        </mxCell>
        <mxCell id="v_n894YwUTUf6LnE3mMy-20" value="&lt;div style=&quot;text-align: center;&quot;&gt;&lt;font style=&quot;color: rgb(0, 0, 0);&quot; face=&quot;Tahoma&quot;&gt;- fornecedor: Fornecedor&amp;nbsp;&lt;/font&gt;&lt;/div&gt;&lt;div&gt;&lt;font style=&quot;color: rgb(0, 0, 0); font-size: 10px;&quot; face=&quot;Tahoma&quot;&gt;&lt;br&gt;&lt;/font&gt;&lt;/div&gt;" style="text;strokeColor=none;fillColor=none;align=left;verticalAlign=top;spacingLeft=4;spacingRight=4;overflow=hidden;rotatable=0;points=[[0,0.5],[1,0.5]];portConstraint=eastwest;whiteSpace=wrap;html=1;" vertex="1" parent="v_n894YwUTUf6LnE3mMy-19">
          <mxGeometry y="26" width="310" height="26" as="geometry" />
        </mxCell>
        <mxCell id="v_n894YwUTUf6LnE3mMy-23" value="&lt;div style=&quot;text-align: center;&quot;&gt;&lt;font style=&quot;color: rgb(0, 0, 0);&quot; face=&quot;Tahoma&quot;&gt;- produto: Produto&lt;/font&gt;&lt;/div&gt;&lt;div&gt;&lt;font style=&quot;color: rgb(0, 0, 0); font-size: 10px;&quot; face=&quot;Tahoma&quot;&gt;&lt;br&gt;&lt;/font&gt;&lt;/div&gt;" style="text;strokeColor=none;fillColor=none;align=left;verticalAlign=top;spacingLeft=4;spacingRight=4;overflow=hidden;rotatable=0;points=[[0,0.5],[1,0.5]];portConstraint=eastwest;whiteSpace=wrap;html=1;" vertex="1" parent="v_n894YwUTUf6LnE3mMy-19">
          <mxGeometry y="52" width="310" height="26" as="geometry" />
        </mxCell>
        <mxCell id="7a0r4--phNWT5isBZOg2-24" value="&lt;font&gt;&lt;font style=&quot;color: rgb(0, 0, 0); font-family: Tahoma; text-align: center;&quot;&gt;&amp;nbsp;- precoCusto: double&lt;/font&gt;&lt;span style=&quot;font-family: Tahoma; text-align: center; color: light-dark(rgb(153, 0, 77), rgb(255, 172, 238));&quot;&gt;&amp;nbsp;&lt;/span&gt;&lt;/font&gt;" style="text;strokeColor=none;fillColor=none;align=left;verticalAlign=top;spacingLeft=4;spacingRight=4;overflow=hidden;rotatable=0;points=[[0,0.5],[1,0.5]];portConstraint=eastwest;whiteSpace=wrap;html=1;" vertex="1" parent="v_n894YwUTUf6LnE3mMy-19">
          <mxGeometry y="78" width="310" height="26" as="geometry" />
        </mxCell>
        <mxCell id="v_n894YwUTUf6LnE3mMy-24" value="&lt;font&gt;&lt;font style=&quot;color: rgb(0, 0, 0); font-family: Tahoma; text-align: center;&quot;&gt;&amp;nbsp;- precoVenda: double&lt;/font&gt;&lt;span style=&quot;font-family: Tahoma; text-align: center; color: light-dark(rgb(153, 0, 77), rgb(255, 172, 238));&quot;&gt;&amp;nbsp;&lt;/span&gt;&lt;/font&gt;" style="text;strokeColor=none;fillColor=none;align=left;verticalAlign=top;spacingLeft=4;spacingRight=4;overflow=hidden;rotatable=0;points=[[0,0.5],[1,0.5]];portConstraint=eastwest;whiteSpace=wrap;html=1;" vertex="1" parent="v_n894YwUTUf6LnE3mMy-19">
          <mxGeometry y="104" width="310" height="26" as="geometry" />
        </mxCell>
        <mxCell id="v_n894YwUTUf6LnE3mMy-21" value="" style="line;strokeWidth=1;fillColor=none;align=left;verticalAlign=middle;spacingTop=-1;spacingLeft=3;spacingRight=3;rotatable=0;labelPosition=right;points=[];portConstraint=eastwest;strokeColor=inherit;" vertex="1" parent="v_n894YwUTUf6LnE3mMy-19">
          <mxGeometry y="130" width="310" height="8" as="geometry" />
        </mxCell>
        <mxCell id="v_n894YwUTUf6LnE3mMy-25" value="+ Fornecimento(fornecedor: Fornecedor, produto: Produto, precoCusto: double, precoVenda: double)" style="text;strokeColor=none;fillColor=none;align=left;verticalAlign=top;spacingLeft=4;spacingRight=4;overflow=hidden;rotatable=0;points=[[0,0.5],[1,0.5]];portConstraint=eastwest;whiteSpace=wrap;html=1;" vertex="1" parent="v_n894YwUTUf6LnE3mMy-19">
          <mxGeometry y="138" width="310" height="38" as="geometry" />
        </mxCell>
        <mxCell id="v_n894YwUTUf6LnE3mMy-26" value="&lt;span style=&quot;font-family: Tahoma; text-align: center;&quot;&gt;&lt;font&gt;&amp;nbsp;+ getFornecedor(): Fornecedor&amp;nbsp;&lt;/font&gt;&lt;/span&gt;" style="text;strokeColor=none;fillColor=none;align=left;verticalAlign=top;spacingLeft=4;spacingRight=4;overflow=hidden;rotatable=0;points=[[0,0.5],[1,0.5]];portConstraint=eastwest;whiteSpace=wrap;html=1;" vertex="1" parent="v_n894YwUTUf6LnE3mMy-19">
          <mxGeometry y="176" width="310" height="26" as="geometry" />
        </mxCell>
        <mxCell id="v_n894YwUTUf6LnE3mMy-22" value="&lt;div style=&quot;font-family: Tahoma; text-align: center;&quot;&gt;&lt;span style=&quot;background-color: transparent; color: light-dark(rgb(0, 0, 0), rgb(255, 255, 255));&quot;&gt;&lt;font&gt;&amp;nbsp;+ setFornecedor(fornecedor: Fornecedor): void&amp;nbsp;&lt;/font&gt;&lt;/span&gt;&lt;/div&gt;&lt;div&gt;&lt;span style=&quot;background-color: transparent; color: light-dark(rgb(0, 0, 0), rgb(255, 255, 255));&quot;&gt;&lt;br&gt;&lt;/span&gt;&lt;/div&gt;" style="text;strokeColor=none;fillColor=none;align=left;verticalAlign=top;spacingLeft=4;spacingRight=4;overflow=hidden;rotatable=0;points=[[0,0.5],[1,0.5]];portConstraint=eastwest;whiteSpace=wrap;html=1;" vertex="1" parent="v_n894YwUTUf6LnE3mMy-19">
          <mxGeometry y="202" width="310" height="26" as="geometry" />
        </mxCell>
        <mxCell id="v_n894YwUTUf6LnE3mMy-29" value="&lt;div style=&quot;font-family: Tahoma; text-align: center;&quot;&gt;&lt;span style=&quot;background-color: transparent; color: light-dark(rgb(0, 0, 0), rgb(255, 255, 255));&quot;&gt;&lt;font&gt;+ getProduto(): Produto&amp;nbsp;&lt;/font&gt;&lt;/span&gt;&lt;/div&gt;&lt;div&gt;&lt;span style=&quot;background-color: transparent; color: light-dark(rgb(0, 0, 0), rgb(255, 255, 255));&quot;&gt;&lt;br&gt;&lt;/span&gt;&lt;/div&gt;" style="text;strokeColor=none;fillColor=none;align=left;verticalAlign=top;spacingLeft=4;spacingRight=4;overflow=hidden;rotatable=0;points=[[0,0.5],[1,0.5]];portConstraint=eastwest;whiteSpace=wrap;html=1;" vertex="1" parent="v_n894YwUTUf6LnE3mMy-19">
          <mxGeometry y="228" width="310" height="26" as="geometry" />
        </mxCell>
        <mxCell id="v_n894YwUTUf6LnE3mMy-28" value="&lt;div style=&quot;font-family: Tahoma; text-align: center;&quot;&gt;&lt;span style=&quot;background-color: transparent; color: light-dark(rgb(0, 0, 0), rgb(255, 255, 255));&quot;&gt;&lt;font&gt;&amp;nbsp;+ setProduto(produto: Produto): void&amp;nbsp;&lt;/font&gt;&lt;/span&gt;&lt;/div&gt;&lt;div&gt;&lt;span style=&quot;background-color: transparent; color: light-dark(rgb(0, 0, 0), rgb(255, 255, 255));&quot;&gt;&lt;br&gt;&lt;/span&gt;&lt;/div&gt;" style="text;strokeColor=none;fillColor=none;align=left;verticalAlign=top;spacingLeft=4;spacingRight=4;overflow=hidden;rotatable=0;points=[[0,0.5],[1,0.5]];portConstraint=eastwest;whiteSpace=wrap;html=1;" vertex="1" parent="v_n894YwUTUf6LnE3mMy-19">
          <mxGeometry y="254" width="310" height="26" as="geometry" />
        </mxCell>
        <mxCell id="7a0r4--phNWT5isBZOg2-1" value="&lt;div style=&quot;font-family: Tahoma; text-align: center;&quot;&gt;+ getPrecoCusto(): double&lt;/div&gt;" style="text;strokeColor=none;fillColor=none;align=left;verticalAlign=top;spacingLeft=4;spacingRight=4;overflow=hidden;rotatable=0;points=[[0,0.5],[1,0.5]];portConstraint=eastwest;whiteSpace=wrap;html=1;" vertex="1" parent="v_n894YwUTUf6LnE3mMy-19">
          <mxGeometry y="280" width="310" height="26" as="geometry" />
        </mxCell>
        <mxCell id="7a0r4--phNWT5isBZOg2-2" value="&lt;div style=&quot;font-family: Tahoma; text-align: center;&quot;&gt;+ setPrecoCusto(precoCusto: double): void&lt;/div&gt;" style="text;strokeColor=none;fillColor=none;align=left;verticalAlign=top;spacingLeft=4;spacingRight=4;overflow=hidden;rotatable=0;points=[[0,0.5],[1,0.5]];portConstraint=eastwest;whiteSpace=wrap;html=1;" vertex="1" parent="v_n894YwUTUf6LnE3mMy-19">
          <mxGeometry y="306" width="310" height="26" as="geometry" />
        </mxCell>
        <mxCell id="7a0r4--phNWT5isBZOg2-3" value="&lt;div style=&quot;font-family: Tahoma; text-align: center;&quot;&gt;+ getPrecoVenda(): double&lt;/div&gt;" style="text;strokeColor=none;fillColor=none;align=left;verticalAlign=top;spacingLeft=4;spacingRight=4;overflow=hidden;rotatable=0;points=[[0,0.5],[1,0.5]];portConstraint=eastwest;whiteSpace=wrap;html=1;" vertex="1" parent="v_n894YwUTUf6LnE3mMy-19">
          <mxGeometry y="332" width="310" height="26" as="geometry" />
        </mxCell>
        <mxCell id="v_n894YwUTUf6LnE3mMy-33" value="&lt;div style=&quot;font-family: Tahoma; text-align: center;&quot;&gt;+ setPrecoVenda(precoVenda: double): void&lt;/div&gt;" style="text;strokeColor=none;fillColor=none;align=left;verticalAlign=top;spacingLeft=4;spacingRight=4;overflow=hidden;rotatable=0;points=[[0,0.5],[1,0.5]];portConstraint=eastwest;whiteSpace=wrap;html=1;" vertex="1" parent="v_n894YwUTUf6LnE3mMy-19">
          <mxGeometry y="358" width="310" height="26" as="geometry" />
        </mxCell>
        <mxCell id="v_n894YwUTUf6LnE3mMy-34" value="Fornecedor" style="swimlane;fontStyle=1;align=center;verticalAlign=top;childLayout=stackLayout;horizontal=1;startSize=26;horizontalStack=0;resizeParent=1;resizeParentMax=0;resizeLast=0;collapsible=1;marginBottom=0;whiteSpace=wrap;html=1;" vertex="1" parent="1">
          <mxGeometry x="-2350" y="-2180" width="310" height="350" as="geometry">
            <mxRectangle x="-3480" y="-730" width="110" height="30" as="alternateBounds" />
          </mxGeometry>
        </mxCell>
        <mxCell id="v_n894YwUTUf6LnE3mMy-35" value="&lt;div style=&quot;text-align: center;&quot;&gt;&lt;font face=&quot;Tahoma&quot;&gt;- id: int&lt;span style=&quot;white-space: pre;&quot;&gt;&#x9;&lt;/span&gt;&lt;/font&gt;&lt;/div&gt;" style="text;strokeColor=none;fillColor=none;align=left;verticalAlign=top;spacingLeft=4;spacingRight=4;overflow=hidden;rotatable=0;points=[[0,0.5],[1,0.5]];portConstraint=eastwest;whiteSpace=wrap;html=1;" vertex="1" parent="v_n894YwUTUf6LnE3mMy-34">
          <mxGeometry y="26" width="310" height="26" as="geometry" />
        </mxCell>
        <mxCell id="v_n894YwUTUf6LnE3mMy-36" value="&lt;div style=&quot;text-align: center;&quot;&gt;&lt;font face=&quot;Tahoma&quot;&gt;- nome: String&lt;/font&gt;&lt;/div&gt;" style="text;strokeColor=none;fillColor=none;align=left;verticalAlign=top;spacingLeft=4;spacingRight=4;overflow=hidden;rotatable=0;points=[[0,0.5],[1,0.5]];portConstraint=eastwest;whiteSpace=wrap;html=1;" vertex="1" parent="v_n894YwUTUf6LnE3mMy-34">
          <mxGeometry y="52" width="310" height="26" as="geometry" />
        </mxCell>
        <mxCell id="7a0r4--phNWT5isBZOg2-25" value="&lt;div style=&quot;text-align: center;&quot;&gt;&lt;span style=&quot;background-color: transparent; color: light-dark(rgb(0, 0, 0), rgb(255, 255, 255));&quot;&gt;&lt;font face=&quot;Tahoma&quot;&gt;- fornecimentos: List&amp;lt;Fornecimento&amp;gt;&lt;/font&gt;&lt;/span&gt;&lt;/div&gt;" style="text;strokeColor=none;fillColor=none;align=left;verticalAlign=top;spacingLeft=4;spacingRight=4;overflow=hidden;rotatable=0;points=[[0,0.5],[1,0.5]];portConstraint=eastwest;whiteSpace=wrap;html=1;" vertex="1" parent="v_n894YwUTUf6LnE3mMy-34">
          <mxGeometry y="78" width="310" height="26" as="geometry" />
        </mxCell>
        <mxCell id="v_n894YwUTUf6LnE3mMy-38" value="" style="line;strokeWidth=1;fillColor=none;align=left;verticalAlign=middle;spacingTop=-1;spacingLeft=3;spacingRight=3;rotatable=0;labelPosition=right;points=[];portConstraint=eastwest;strokeColor=inherit;" vertex="1" parent="v_n894YwUTUf6LnE3mMy-34">
          <mxGeometry y="104" width="310" height="8" as="geometry" />
        </mxCell>
        <mxCell id="v_n894YwUTUf6LnE3mMy-39" value="&lt;b&gt;&amp;nbsp;+ Fornecedor(id: int, nome: String)&lt;/b&gt;" style="text;strokeColor=none;fillColor=none;align=left;verticalAlign=top;spacingLeft=4;spacingRight=4;overflow=hidden;rotatable=0;points=[[0,0.5],[1,0.5]];portConstraint=eastwest;whiteSpace=wrap;html=1;" vertex="1" parent="v_n894YwUTUf6LnE3mMy-34">
          <mxGeometry y="112" width="310" height="28" as="geometry" />
        </mxCell>
        <mxCell id="-h6qQ960cBfA1UG9frks-13" value="+ cadastrar() : void" style="text;strokeColor=none;fillColor=none;align=left;verticalAlign=top;spacingLeft=4;spacingRight=4;overflow=hidden;rotatable=0;points=[[0,0.5],[1,0.5]];portConstraint=eastwest;whiteSpace=wrap;html=1;" vertex="1" parent="v_n894YwUTUf6LnE3mMy-34">
          <mxGeometry y="140" width="310" height="26" as="geometry" />
        </mxCell>
        <mxCell id="-h6qQ960cBfA1UG9frks-12" value="+ atualizar(): void" style="text;strokeColor=none;fillColor=none;align=left;verticalAlign=top;spacingLeft=4;spacingRight=4;overflow=hidden;rotatable=0;points=[[0,0.5],[1,0.5]];portConstraint=eastwest;whiteSpace=wrap;html=1;" vertex="1" parent="v_n894YwUTUf6LnE3mMy-34">
          <mxGeometry y="166" width="310" height="26" as="geometry" />
        </mxCell>
        <mxCell id="v_n894YwUTUf6LnE3mMy-40" value="+ remover: void" style="text;strokeColor=none;fillColor=none;align=left;verticalAlign=top;spacingLeft=4;spacingRight=4;overflow=hidden;rotatable=0;points=[[0,0.5],[1,0.5]];portConstraint=eastwest;whiteSpace=wrap;html=1;" vertex="1" parent="v_n894YwUTUf6LnE3mMy-34">
          <mxGeometry y="192" width="310" height="26" as="geometry" />
        </mxCell>
        <mxCell id="7a0r4--phNWT5isBZOg2-26" value="&lt;div style=&quot;font-family: Tahoma; text-align: center;&quot;&gt;+ setNome(nome: String): void&amp;nbsp;&lt;/div&gt;" style="text;strokeColor=none;fillColor=none;align=left;verticalAlign=top;spacingLeft=4;spacingRight=4;overflow=hidden;rotatable=0;points=[[0,0.5],[1,0.5]];portConstraint=eastwest;whiteSpace=wrap;html=1;" vertex="1" parent="v_n894YwUTUf6LnE3mMy-34">
          <mxGeometry y="218" width="310" height="26" as="geometry" />
        </mxCell>
        <mxCell id="v_n894YwUTUf6LnE3mMy-43" value="&lt;div style=&quot;font-family: Tahoma; text-align: center;&quot;&gt;+ getNome(): String&amp;nbsp;&lt;/div&gt;" style="text;strokeColor=none;fillColor=none;align=left;verticalAlign=top;spacingLeft=4;spacingRight=4;overflow=hidden;rotatable=0;points=[[0,0.5],[1,0.5]];portConstraint=eastwest;whiteSpace=wrap;html=1;" vertex="1" parent="v_n894YwUTUf6LnE3mMy-34">
          <mxGeometry y="244" width="310" height="26" as="geometry" />
        </mxCell>
        <mxCell id="v_n894YwUTUf6LnE3mMy-44" value="&lt;div style=&quot;font-family: Tahoma; text-align: center;&quot;&gt;+ getFornecimentos(): List&amp;lt;Fornecimento&amp;gt;&amp;nbsp;&lt;/div&gt;" style="text;strokeColor=none;fillColor=none;align=left;verticalAlign=top;spacingLeft=4;spacingRight=4;overflow=hidden;rotatable=0;points=[[0,0.5],[1,0.5]];portConstraint=eastwest;whiteSpace=wrap;html=1;" vertex="1" parent="v_n894YwUTUf6LnE3mMy-34">
          <mxGeometry y="270" width="310" height="26" as="geometry" />
        </mxCell>
        <mxCell id="v_n894YwUTUf6LnE3mMy-45" value="+ setFornecimentos(fornecimentos: List&amp;lt;Fornecimentos&amp;gt;): void" style="text;strokeColor=none;fillColor=none;align=left;verticalAlign=top;spacingLeft=4;spacingRight=4;overflow=hidden;rotatable=0;points=[[0,0.5],[1,0.5]];portConstraint=eastwest;whiteSpace=wrap;html=1;" vertex="1" parent="v_n894YwUTUf6LnE3mMy-34">
          <mxGeometry y="296" width="310" height="54" as="geometry" />
        </mxCell>
        <mxCell id="v_n894YwUTUf6LnE3mMy-46" value="Produto" style="swimlane;fontStyle=1;align=center;verticalAlign=top;childLayout=stackLayout;horizontal=1;startSize=26;horizontalStack=0;resizeParent=1;resizeParentMax=0;resizeLast=0;collapsible=1;marginBottom=0;whiteSpace=wrap;html=1;" vertex="1" parent="1">
          <mxGeometry x="-2930" y="-1450" width="370" height="700" as="geometry">
            <mxRectangle x="-2520" y="-760" width="110" height="30" as="alternateBounds" />
          </mxGeometry>
        </mxCell>
        <mxCell id="v_n894YwUTUf6LnE3mMy-47" value="&lt;div style=&quot;text-align: center;&quot;&gt;- id: int&amp;nbsp;&lt;/div&gt;" style="text;strokeColor=none;fillColor=none;align=left;verticalAlign=top;spacingLeft=4;spacingRight=4;overflow=hidden;rotatable=0;points=[[0,0.5],[1,0.5]];portConstraint=eastwest;whiteSpace=wrap;html=1;" vertex="1" parent="v_n894YwUTUf6LnE3mMy-46">
          <mxGeometry y="26" width="370" height="26" as="geometry" />
        </mxCell>
        <mxCell id="v_n894YwUTUf6LnE3mMy-48" value="&lt;div style=&quot;text-align: center;&quot;&gt;- nome: String&amp;nbsp;&lt;/div&gt;" style="text;strokeColor=none;fillColor=none;align=left;verticalAlign=top;spacingLeft=4;spacingRight=4;overflow=hidden;rotatable=0;points=[[0,0.5],[1,0.5]];portConstraint=eastwest;whiteSpace=wrap;html=1;" vertex="1" parent="v_n894YwUTUf6LnE3mMy-46">
          <mxGeometry y="52" width="370" height="26" as="geometry" />
        </mxCell>
        <mxCell id="v_n894YwUTUf6LnE3mMy-63" value="- precoVenda: double&amp;nbsp;" style="text;strokeColor=none;fillColor=none;align=left;verticalAlign=top;spacingLeft=4;spacingRight=4;overflow=hidden;rotatable=0;points=[[0,0.5],[1,0.5]];portConstraint=eastwest;whiteSpace=wrap;html=1;" vertex="1" parent="v_n894YwUTUf6LnE3mMy-46">
          <mxGeometry y="78" width="370" height="26" as="geometry" />
        </mxCell>
        <mxCell id="v_n894YwUTUf6LnE3mMy-62" value="- estoqueAtual: int&amp;nbsp;" style="text;strokeColor=none;fillColor=none;align=left;verticalAlign=top;spacingLeft=4;spacingRight=4;overflow=hidden;rotatable=0;points=[[0,0.5],[1,0.5]];portConstraint=eastwest;whiteSpace=wrap;html=1;" vertex="1" parent="v_n894YwUTUf6LnE3mMy-46">
          <mxGeometry y="104" width="370" height="26" as="geometry" />
        </mxCell>
        <mxCell id="v_n894YwUTUf6LnE3mMy-61" value="- estoqueMinimo: int&amp;nbsp;" style="text;strokeColor=none;fillColor=none;align=left;verticalAlign=top;spacingLeft=4;spacingRight=4;overflow=hidden;rotatable=0;points=[[0,0.5],[1,0.5]];portConstraint=eastwest;whiteSpace=wrap;html=1;" vertex="1" parent="v_n894YwUTUf6LnE3mMy-46">
          <mxGeometry y="130" width="370" height="26" as="geometry" />
        </mxCell>
        <mxCell id="v_n894YwUTUf6LnE3mMy-60" value="- categoria: Categoria&amp;nbsp;" style="text;strokeColor=none;fillColor=none;align=left;verticalAlign=top;spacingLeft=4;spacingRight=4;overflow=hidden;rotatable=0;points=[[0,0.5],[1,0.5]];portConstraint=eastwest;whiteSpace=wrap;html=1;" vertex="1" parent="v_n894YwUTUf6LnE3mMy-46">
          <mxGeometry y="156" width="370" height="28" as="geometry" />
        </mxCell>
        <mxCell id="v_n894YwUTUf6LnE3mMy-49" value="- fornecimentos: List&amp;lt;Fornecimento&amp;gt;&amp;nbsp;" style="text;strokeColor=none;fillColor=none;align=left;verticalAlign=top;spacingLeft=4;spacingRight=4;overflow=hidden;rotatable=0;points=[[0,0.5],[1,0.5]];portConstraint=eastwest;whiteSpace=wrap;html=1;" vertex="1" parent="v_n894YwUTUf6LnE3mMy-46">
          <mxGeometry y="184" width="370" height="26" as="geometry" />
        </mxCell>
        <mxCell id="v_n894YwUTUf6LnE3mMy-50" value="" style="line;strokeWidth=1;fillColor=none;align=left;verticalAlign=middle;spacingTop=-1;spacingLeft=3;spacingRight=3;rotatable=0;labelPosition=right;points=[];portConstraint=eastwest;strokeColor=inherit;" vertex="1" parent="v_n894YwUTUf6LnE3mMy-46">
          <mxGeometry y="210" width="370" height="8" as="geometry" />
        </mxCell>
        <mxCell id="v_n894YwUTUf6LnE3mMy-51" value="+ Produto(id: int, nome: String, precoCusto: double, precoVenda: double, estoqueMinimo: int, categoria: Categoria)" style="text;strokeColor=none;fillColor=none;align=left;verticalAlign=top;spacingLeft=4;spacingRight=4;overflow=hidden;rotatable=0;points=[[0,0.5],[1,0.5]];portConstraint=eastwest;whiteSpace=wrap;html=1;" vertex="1" parent="v_n894YwUTUf6LnE3mMy-46">
          <mxGeometry y="218" width="370" height="46" as="geometry" />
        </mxCell>
        <mxCell id="-h6qQ960cBfA1UG9frks-16" value="+ cadastrar() : void" style="text;strokeColor=none;fillColor=none;align=left;verticalAlign=top;spacingLeft=4;spacingRight=4;overflow=hidden;rotatable=0;points=[[0,0.5],[1,0.5]];portConstraint=eastwest;whiteSpace=wrap;html=1;" vertex="1" parent="v_n894YwUTUf6LnE3mMy-46">
          <mxGeometry y="264" width="370" height="26" as="geometry" />
        </mxCell>
        <mxCell id="-h6qQ960cBfA1UG9frks-15" value="+ atualizar(): void" style="text;strokeColor=none;fillColor=none;align=left;verticalAlign=top;spacingLeft=4;spacingRight=4;overflow=hidden;rotatable=0;points=[[0,0.5],[1,0.5]];portConstraint=eastwest;whiteSpace=wrap;html=1;" vertex="1" parent="v_n894YwUTUf6LnE3mMy-46">
          <mxGeometry y="290" width="370" height="26" as="geometry" />
        </mxCell>
        <mxCell id="-h6qQ960cBfA1UG9frks-14" value="+ remover: void" style="text;strokeColor=none;fillColor=none;align=left;verticalAlign=top;spacingLeft=4;spacingRight=4;overflow=hidden;rotatable=0;points=[[0,0.5],[1,0.5]];portConstraint=eastwest;whiteSpace=wrap;html=1;" vertex="1" parent="v_n894YwUTUf6LnE3mMy-46">
          <mxGeometry y="316" width="370" height="26" as="geometry" />
        </mxCell>
        <mxCell id="v_n894YwUTUf6LnE3mMy-52" value="+ aumentarEstoque(quantidade: int): void&amp;nbsp;" style="text;strokeColor=none;fillColor=none;align=left;verticalAlign=top;spacingLeft=4;spacingRight=4;overflow=hidden;rotatable=0;points=[[0,0.5],[1,0.5]];portConstraint=eastwest;whiteSpace=wrap;html=1;" vertex="1" parent="v_n894YwUTUf6LnE3mMy-46">
          <mxGeometry y="342" width="370" height="26" as="geometry" />
        </mxCell>
        <mxCell id="v_n894YwUTUf6LnE3mMy-53" value="&lt;div style=&quot;font-family: Tahoma;&quot;&gt;&lt;font&gt;+ diminuirEstoque(quantidade: int): void &amp;lt;&amp;lt;throws&amp;gt;&amp;gt; IllegalArgumentException&amp;nbsp;&lt;/font&gt;&lt;/div&gt;" style="text;strokeColor=none;fillColor=none;align=left;verticalAlign=top;spacingLeft=4;spacingRight=4;overflow=hidden;rotatable=0;points=[[0,0.5],[1,0.5]];portConstraint=eastwest;whiteSpace=wrap;html=1;" vertex="1" parent="v_n894YwUTUf6LnE3mMy-46">
          <mxGeometry y="368" width="370" height="46" as="geometry" />
        </mxCell>
        <mxCell id="v_n894YwUTUf6LnE3mMy-54" value="&lt;div style=&quot;font-family: Tahoma; text-align: center;&quot;&gt;+ verificarEstoqueMinimo(): boolean&amp;nbsp;&lt;/div&gt;" style="text;strokeColor=none;fillColor=none;align=left;verticalAlign=top;spacingLeft=4;spacingRight=4;overflow=hidden;rotatable=0;points=[[0,0.5],[1,0.5]];portConstraint=eastwest;whiteSpace=wrap;html=1;" vertex="1" parent="v_n894YwUTUf6LnE3mMy-46">
          <mxGeometry y="414" width="370" height="26" as="geometry" />
        </mxCell>
        <mxCell id="v_n894YwUTUf6LnE3mMy-55" value="&lt;div style=&quot;font-family: Tahoma; text-align: center;&quot;&gt;+ getFornecimentos(): List&amp;lt;Fornecimento&amp;gt;&amp;nbsp;&lt;/div&gt;" style="text;strokeColor=none;fillColor=none;align=left;verticalAlign=top;spacingLeft=4;spacingRight=4;overflow=hidden;rotatable=0;points=[[0,0.5],[1,0.5]];portConstraint=eastwest;whiteSpace=wrap;html=1;" vertex="1" parent="v_n894YwUTUf6LnE3mMy-46">
          <mxGeometry y="440" width="370" height="26" as="geometry" />
        </mxCell>
        <mxCell id="v_n894YwUTUf6LnE3mMy-56" value="&lt;div style=&quot;font-family: Tahoma; text-align: center;&quot;&gt;+ setFornecimentos(fornecimentos: List&amp;lt;Fornecimento&amp;gt;): void&amp;nbsp;&lt;/div&gt;" style="text;strokeColor=none;fillColor=none;align=left;verticalAlign=top;spacingLeft=4;spacingRight=4;overflow=hidden;rotatable=0;points=[[0,0.5],[1,0.5]];portConstraint=eastwest;whiteSpace=wrap;html=1;" vertex="1" parent="v_n894YwUTUf6LnE3mMy-46">
          <mxGeometry y="466" width="370" height="26" as="geometry" />
        </mxCell>
        <mxCell id="v_n894YwUTUf6LnE3mMy-84" value="&lt;div style=&quot;font-family: Tahoma; text-align: center;&quot;&gt;+ getId(): int&amp;nbsp;&lt;/div&gt;" style="text;strokeColor=none;fillColor=none;align=left;verticalAlign=top;spacingLeft=4;spacingRight=4;overflow=hidden;rotatable=0;points=[[0,0.5],[1,0.5]];portConstraint=eastwest;whiteSpace=wrap;html=1;" vertex="1" parent="v_n894YwUTUf6LnE3mMy-46">
          <mxGeometry y="492" width="370" height="26" as="geometry" />
        </mxCell>
        <mxCell id="v_n894YwUTUf6LnE3mMy-57" value="&lt;div style=&quot;font-family: Tahoma; text-align: center;&quot;&gt;+ getNome(): String&amp;nbsp;&lt;/div&gt;" style="text;strokeColor=none;fillColor=none;align=left;verticalAlign=top;spacingLeft=4;spacingRight=4;overflow=hidden;rotatable=0;points=[[0,0.5],[1,0.5]];portConstraint=eastwest;whiteSpace=wrap;html=1;" vertex="1" parent="v_n894YwUTUf6LnE3mMy-46">
          <mxGeometry y="518" width="370" height="26" as="geometry" />
        </mxCell>
        <mxCell id="v_n894YwUTUf6LnE3mMy-85" value="&lt;div style=&quot;font-family: Tahoma; text-align: center;&quot;&gt;+ setNome(nome: String): void&lt;/div&gt;" style="text;strokeColor=none;fillColor=none;align=left;verticalAlign=top;spacingLeft=4;spacingRight=4;overflow=hidden;rotatable=0;points=[[0,0.5],[1,0.5]];portConstraint=eastwest;whiteSpace=wrap;html=1;" vertex="1" parent="v_n894YwUTUf6LnE3mMy-46">
          <mxGeometry y="544" width="370" height="26" as="geometry" />
        </mxCell>
        <mxCell id="v_n894YwUTUf6LnE3mMy-109" value="+ getEstoqueAtual(): int&lt;div&gt;&lt;br&gt;&lt;/div&gt;" style="text;strokeColor=none;fillColor=none;align=left;verticalAlign=top;spacingLeft=4;spacingRight=4;overflow=hidden;rotatable=0;points=[[0,0.5],[1,0.5]];portConstraint=eastwest;whiteSpace=wrap;html=1;" vertex="1" parent="v_n894YwUTUf6LnE3mMy-46">
          <mxGeometry y="570" width="370" height="26" as="geometry" />
        </mxCell>
        <mxCell id="v_n894YwUTUf6LnE3mMy-112" value="+ getEstoqueMinimo(): int&lt;div&gt;&lt;br&gt;&lt;/div&gt;" style="text;strokeColor=none;fillColor=none;align=left;verticalAlign=top;spacingLeft=4;spacingRight=4;overflow=hidden;rotatable=0;points=[[0,0.5],[1,0.5]];portConstraint=eastwest;whiteSpace=wrap;html=1;" vertex="1" parent="v_n894YwUTUf6LnE3mMy-46">
          <mxGeometry y="596" width="370" height="26" as="geometry" />
        </mxCell>
        <mxCell id="v_n894YwUTUf6LnE3mMy-111" value="+ setEstoqueMinimo(estoqueMinimo: int): void&lt;div&gt;&lt;br&gt;&lt;/div&gt;" style="text;strokeColor=none;fillColor=none;align=left;verticalAlign=top;spacingLeft=4;spacingRight=4;overflow=hidden;rotatable=0;points=[[0,0.5],[1,0.5]];portConstraint=eastwest;whiteSpace=wrap;html=1;" vertex="1" parent="v_n894YwUTUf6LnE3mMy-46">
          <mxGeometry y="622" width="370" height="26" as="geometry" />
        </mxCell>
        <mxCell id="v_n894YwUTUf6LnE3mMy-110" value="+ getCategoria(): Categoria&lt;div&gt;&lt;br&gt;&lt;/div&gt;" style="text;strokeColor=none;fillColor=none;align=left;verticalAlign=top;spacingLeft=4;spacingRight=4;overflow=hidden;rotatable=0;points=[[0,0.5],[1,0.5]];portConstraint=eastwest;whiteSpace=wrap;html=1;" vertex="1" parent="v_n894YwUTUf6LnE3mMy-46">
          <mxGeometry y="648" width="370" height="26" as="geometry" />
        </mxCell>
        <mxCell id="v_n894YwUTUf6LnE3mMy-113" value="+ setCategoria(categoria: Categoria): void&lt;div&gt;&lt;br&gt;&lt;/div&gt;" style="text;strokeColor=none;fillColor=none;align=left;verticalAlign=top;spacingLeft=4;spacingRight=4;overflow=hidden;rotatable=0;points=[[0,0.5],[1,0.5]];portConstraint=eastwest;whiteSpace=wrap;html=1;" vertex="1" parent="v_n894YwUTUf6LnE3mMy-46">
          <mxGeometry y="674" width="370" height="26" as="geometry" />
        </mxCell>
        <mxCell id="v_n894YwUTUf6LnE3mMy-114" value="Categoria" style="swimlane;fontStyle=1;align=center;verticalAlign=top;childLayout=stackLayout;horizontal=1;startSize=26;horizontalStack=0;resizeParent=1;resizeParentMax=0;resizeLast=0;collapsible=1;marginBottom=0;whiteSpace=wrap;html=1;" vertex="1" parent="1">
          <mxGeometry x="-3380" y="-1698" width="220" height="188" as="geometry">
            <mxRectangle x="-1788" y="-542" width="110" height="30" as="alternateBounds" />
          </mxGeometry>
        </mxCell>
        <mxCell id="v_n894YwUTUf6LnE3mMy-115" value="&lt;div style=&quot;text-align: center;&quot;&gt;- id: int&amp;nbsp;&lt;/div&gt;" style="text;strokeColor=none;fillColor=none;align=left;verticalAlign=top;spacingLeft=4;spacingRight=4;overflow=hidden;rotatable=0;points=[[0,0.5],[1,0.5]];portConstraint=eastwest;whiteSpace=wrap;html=1;" vertex="1" parent="v_n894YwUTUf6LnE3mMy-114">
          <mxGeometry y="26" width="220" height="26" as="geometry" />
        </mxCell>
        <mxCell id="v_n894YwUTUf6LnE3mMy-116" value="&lt;div style=&quot;text-align: center;&quot;&gt;- nome: String&amp;nbsp;&lt;/div&gt;" style="text;strokeColor=none;fillColor=none;align=left;verticalAlign=top;spacingLeft=4;spacingRight=4;overflow=hidden;rotatable=0;points=[[0,0.5],[1,0.5]];portConstraint=eastwest;whiteSpace=wrap;html=1;" vertex="1" parent="v_n894YwUTUf6LnE3mMy-114">
          <mxGeometry y="52" width="220" height="26" as="geometry" />
        </mxCell>
        <mxCell id="v_n894YwUTUf6LnE3mMy-118" value="" style="line;strokeWidth=1;fillColor=none;align=left;verticalAlign=middle;spacingTop=-1;spacingLeft=3;spacingRight=3;rotatable=0;labelPosition=right;points=[];portConstraint=eastwest;strokeColor=inherit;" vertex="1" parent="v_n894YwUTUf6LnE3mMy-114">
          <mxGeometry y="78" width="220" height="8" as="geometry" />
        </mxCell>
        <mxCell id="v_n894YwUTUf6LnE3mMy-119" value="&lt;b&gt;+ Categoria(id: int, nome: String)&amp;nbsp;&lt;/b&gt;" style="text;strokeColor=none;fillColor=none;align=left;verticalAlign=top;spacingLeft=4;spacingRight=4;overflow=hidden;rotatable=0;points=[[0,0.5],[1,0.5]];portConstraint=eastwest;whiteSpace=wrap;html=1;" vertex="1" parent="v_n894YwUTUf6LnE3mMy-114">
          <mxGeometry y="86" width="220" height="24" as="geometry" />
        </mxCell>
        <mxCell id="v_n894YwUTUf6LnE3mMy-120" value="+ getId(): int&amp;nbsp;" style="text;strokeColor=none;fillColor=none;align=left;verticalAlign=top;spacingLeft=4;spacingRight=4;overflow=hidden;rotatable=0;points=[[0,0.5],[1,0.5]];portConstraint=eastwest;whiteSpace=wrap;html=1;" vertex="1" parent="v_n894YwUTUf6LnE3mMy-114">
          <mxGeometry y="110" width="220" height="26" as="geometry" />
        </mxCell>
        <mxCell id="v_n894YwUTUf6LnE3mMy-121" value="&lt;div style=&quot;font-family: Tahoma; text-align: center;&quot;&gt;+ getNome(): String&amp;nbsp;&lt;/div&gt;" style="text;strokeColor=none;fillColor=none;align=left;verticalAlign=top;spacingLeft=4;spacingRight=4;overflow=hidden;rotatable=0;points=[[0,0.5],[1,0.5]];portConstraint=eastwest;whiteSpace=wrap;html=1;" vertex="1" parent="v_n894YwUTUf6LnE3mMy-114">
          <mxGeometry y="136" width="220" height="26" as="geometry" />
        </mxCell>
        <mxCell id="v_n894YwUTUf6LnE3mMy-122" value="&lt;div style=&quot;font-family: Tahoma; text-align: center;&quot;&gt;+ setNome(nome: String): void&amp;nbsp;&lt;/div&gt;" style="text;strokeColor=none;fillColor=none;align=left;verticalAlign=top;spacingLeft=4;spacingRight=4;overflow=hidden;rotatable=0;points=[[0,0.5],[1,0.5]];portConstraint=eastwest;whiteSpace=wrap;html=1;" vertex="1" parent="v_n894YwUTUf6LnE3mMy-114">
          <mxGeometry y="162" width="220" height="26" as="geometry" />
        </mxCell>
        <mxCell id="Lpod-rmeqhxFaZS3XNoK-8" value="EntradaEstoque" style="swimlane;fontStyle=1;align=center;verticalAlign=top;childLayout=stackLayout;horizontal=1;startSize=26;horizontalStack=0;resizeParent=1;resizeParentMax=0;resizeLast=0;collapsible=1;marginBottom=0;whiteSpace=wrap;html=1;" vertex="1" parent="1">
          <mxGeometry x="-2350" y="-1110" width="320" height="180" as="geometry">
            <mxRectangle x="-1900" y="40" width="110" height="30" as="alternateBounds" />
          </mxGeometry>
        </mxCell>
        <mxCell id="Lpod-rmeqhxFaZS3XNoK-9" value="&lt;div style=&quot;text-align: center;&quot;&gt;- fornecedor: Fornecedor&amp;nbsp;&lt;/div&gt;" style="text;strokeColor=none;fillColor=none;align=left;verticalAlign=top;spacingLeft=4;spacingRight=4;overflow=hidden;rotatable=0;points=[[0,0.5],[1,0.5]];portConstraint=eastwest;whiteSpace=wrap;html=1;" vertex="1" parent="Lpod-rmeqhxFaZS3XNoK-8">
          <mxGeometry y="26" width="320" height="26" as="geometry" />
        </mxCell>
        <mxCell id="Lpod-rmeqhxFaZS3XNoK-11" value="" style="line;strokeWidth=1;fillColor=none;align=left;verticalAlign=middle;spacingTop=-1;spacingLeft=3;spacingRight=3;rotatable=0;labelPosition=right;points=[];portConstraint=eastwest;strokeColor=inherit;" vertex="1" parent="Lpod-rmeqhxFaZS3XNoK-8">
          <mxGeometry y="52" width="320" height="8" as="geometry" />
        </mxCell>
        <mxCell id="Lpod-rmeqhxFaZS3XNoK-12" value="&lt;font style=&quot;font-size: 13px;&quot;&gt;+ EntradaEstoque(id: int, data: Date, produto: Produto, quantidade: int, fornecedor: Fornecedor)&lt;/font&gt;" style="text;strokeColor=none;fillColor=none;align=left;verticalAlign=top;spacingLeft=4;spacingRight=4;overflow=hidden;rotatable=0;points=[[0,0.5],[1,0.5]];portConstraint=eastwest;whiteSpace=wrap;html=1;" vertex="1" parent="Lpod-rmeqhxFaZS3XNoK-8">
          <mxGeometry y="60" width="320" height="50" as="geometry" />
        </mxCell>
        <mxCell id="Lpod-rmeqhxFaZS3XNoK-13" value="+ processarMovimento(): void" style="text;strokeColor=none;fillColor=none;align=left;verticalAlign=top;spacingLeft=4;spacingRight=4;overflow=hidden;rotatable=0;points=[[0,0.5],[1,0.5]];portConstraint=eastwest;whiteSpace=wrap;html=1;" vertex="1" parent="Lpod-rmeqhxFaZS3XNoK-8">
          <mxGeometry y="110" width="320" height="26" as="geometry" />
        </mxCell>
        <mxCell id="Lpod-rmeqhxFaZS3XNoK-14" value="&lt;div style=&quot;font-family: Tahoma; text-align: center;&quot;&gt;+ getFornecedor(): Fornecedor&lt;/div&gt;" style="text;strokeColor=none;fillColor=none;align=left;verticalAlign=top;spacingLeft=4;spacingRight=4;overflow=hidden;rotatable=0;points=[[0,0.5],[1,0.5]];portConstraint=eastwest;whiteSpace=wrap;html=1;" vertex="1" parent="Lpod-rmeqhxFaZS3XNoK-8">
          <mxGeometry y="136" width="320" height="26" as="geometry" />
        </mxCell>
        <mxCell id="Lpod-rmeqhxFaZS3XNoK-15" value="&lt;div style=&quot;font-family: Tahoma; text-align: center;&quot;&gt;&lt;br&gt;&lt;/div&gt;" style="text;strokeColor=none;fillColor=none;align=left;verticalAlign=top;spacingLeft=4;spacingRight=4;overflow=hidden;rotatable=0;points=[[0,0.5],[1,0.5]];portConstraint=eastwest;whiteSpace=wrap;html=1;" vertex="1" parent="Lpod-rmeqhxFaZS3XNoK-8">
          <mxGeometry y="162" width="320" height="18" as="geometry" />
        </mxCell>
        <mxCell id="Lpod-rmeqhxFaZS3XNoK-16" value="MovimentoEstoque (abstract)" style="swimlane;fontStyle=1;align=center;verticalAlign=top;childLayout=stackLayout;horizontal=1;startSize=26;horizontalStack=0;resizeParent=1;resizeParentMax=0;resizeLast=0;collapsible=1;marginBottom=0;whiteSpace=wrap;html=1;" vertex="1" parent="1">
          <mxGeometry x="-2935" y="-710" width="380" height="310" as="geometry">
            <mxRectangle x="-1900" y="40" width="110" height="30" as="alternateBounds" />
          </mxGeometry>
        </mxCell>
        <mxCell id="Lpod-rmeqhxFaZS3XNoK-17" value="&lt;div style=&quot;text-align: center;&quot;&gt;- id: int&amp;nbsp;&lt;/div&gt;" style="text;strokeColor=none;fillColor=none;align=left;verticalAlign=top;spacingLeft=4;spacingRight=4;overflow=hidden;rotatable=0;points=[[0,0.5],[1,0.5]];portConstraint=eastwest;whiteSpace=wrap;html=1;" vertex="1" parent="Lpod-rmeqhxFaZS3XNoK-16">
          <mxGeometry y="26" width="380" height="26" as="geometry" />
        </mxCell>
        <mxCell id="Lpod-rmeqhxFaZS3XNoK-18" value="&lt;div style=&quot;text-align: center;&quot;&gt;- data: Date&lt;span style=&quot;color: rgba(0, 0, 0, 0); font-family: monospace; font-size: 0px; text-wrap-mode: nowrap; background-color: transparent; text-align: left;&quot;&gt;%3CmxGraphModel%3E%3Croot%3E%3CmxCell%20id%3D%220%22%2F%3E%3CmxCell%20id%3D%221%22%20parent%3D%220%22%2F%3E%3CmxCell%20id%3D%222%22%20value%3D%22MovimentoEstoque%22%20style%3D%22swimlane%3BfontStyle%3D1%3Balign%3Dcenter%3BverticalAlign%3Dtop%3BchildLayout%3DstackLayout%3Bhorizontal%3D1%3BstartSize%3D26%3BhorizontalStack%3D0%3BresizeParent%3D1%3BresizeParentMax%3D0%3BresizeLast%3D0%3Bcollapsible%3D1%3BmarginBottom%3D0%3BwhiteSpace%3Dwrap%3Bhtml%3D1%3B%22%20vertex%3D%221%22%20parent%3D%221%22%3E%3CmxGeometry%20x%3D%22-2760%22%20y%3D%22-30%22%20width%3D%22310%22%20height%3D%22188%22%20as%3D%22geometry%22%3E%3CmxRectangle%20x%3D%22-1900%22%20y%3D%2240%22%20width%3D%22110%22%20height%3D%2230%22%20as%3D%22alternateBounds%22%2F%3E%3C%2FmxGeometry%3E%3C%2FmxCell%3E%3CmxCell%20id%3D%223%22%20value%3D%22%26lt%3Bdiv%20style%3D%26quot%3Btext-align%3A%20center%3B%26quot%3B%26gt%3B-%20id%3A%20int%26amp%3Bnbsp%3B%26lt%3B%2Fdiv%26gt%3B%22%20style%3D%22text%3BstrokeColor%3Dnone%3BfillColor%3Dnone%3Balign%3Dleft%3BverticalAlign%3Dtop%3BspacingLeft%3D4%3BspacingRight%3D4%3Boverflow%3Dhidden%3Brotatable%3D0%3Bpoints%3D%5B%5B0%2C0.5%5D%2C%5B1%2C0.5%5D%5D%3BportConstraint%3Deastwest%3BwhiteSpace%3Dwrap%3Bhtml%3D1%3B%22%20vertex%3D%221%22%20parent%3D%222%22%3E%3CmxGeometry%20y%3D%2226%22%20width%3D%22310%22%20height%3D%2226%22%20as%3D%22geometry%22%2F%3E%3C%2FmxCell%3E%3CmxCell%20id%3D%224%22%20value%3D%22%26lt%3Bdiv%20style%3D%26quot%3Btext-align%3A%20center%3B%26quot%3B%26gt%3B-%20nome%3A%20String%26amp%3Bnbsp%3B%26lt%3B%2Fdiv%26gt%3B%22%20style%3D%22text%3BstrokeColor%3Dnone%3BfillColor%3Dnone%3Balign%3Dleft%3BverticalAlign%3Dtop%3BspacingLeft%3D4%3BspacingRight%3D4%3Boverflow%3Dhidden%3Brotatable%3D0%3Bpoints%3D%5B%5B0%2C0.5%5D%2C%5B1%2C0.5%5D%5D%3BportConstraint%3Deastwest%3BwhiteSpace%3Dwrap%3Bhtml%3D1%3B%22%20vertex%3D%221%22%20parent%3D%222%22%3E%3CmxGeometry%20y%3D%2252%22%20width%3D%22310%22%20height%3D%2226%22%20as%3D%22geometry%22%2F%3E%3C%2FmxCell%3E%3CmxCell%20id%3D%225%22%20value%3D%22%22%20style%3D%22line%3BstrokeWidth%3D1%3BfillColor%3Dnone%3Balign%3Dleft%3BverticalAlign%3Dmiddle%3BspacingTop%3D-1%3BspacingLeft%3D3%3BspacingRight%3D3%3Brotatable%3D0%3BlabelPosition%3Dright%3Bpoints%3D%5B%5D%3BportConstraint%3Deastwest%3BstrokeColor%3Dinherit%3B%22%20vertex%3D%221%22%20parent%3D%222%22%3E%3CmxGeometry%20y%3D%2278%22%20width%3D%22310%22%20height%3D%228%22%20as%3D%22geometry%22%2F%3E%3C%2FmxCell%3E%3CmxCell%20id%3D%226%22%20value%3D%22%26lt%3Bb%26gt%3B%2B%20Categoria(id%3A%20int%2C%20nome%3A%20String)%26amp%3Bnbsp%3B%26lt%3B%2Fb%26gt%3B%22%20style%3D%22text%3BstrokeColor%3Dnone%3BfillColor%3Dnone%3Balign%3Dleft%3BverticalAlign%3Dtop%3BspacingLeft%3D4%3BspacingRight%3D4%3Boverflow%3Dhidden%3Brotatable%3D0%3Bpoints%3D%5B%5B0%2C0.5%5D%2C%5B1%2C0.5%5D%5D%3BportConstraint%3Deastwest%3BwhiteSpace%3Dwrap%3Bhtml%3D1%3B%22%20vertex%3D%221%22%20parent%3D%222%22%3E%3CmxGeometry%20y%3D%2286%22%20width%3D%22310%22%20height%3D%2224%22%20as%3D%22geometry%22%2F%3E%3C%2FmxCell%3E%3CmxCell%20id%3D%227%22%20value%3D%22%2B%20getId()%3A%20int%26amp%3Bnbsp%3B%22%20style%3D%22text%3BstrokeColor%3Dnone%3BfillColor%3Dnone%3Balign%3Dleft%3BverticalAlign%3Dtop%3BspacingLeft%3D4%3BspacingRight%3D4%3Boverflow%3Dhidden%3Brotatable%3D0%3Bpoints%3D%5B%5B0%2C0.5%5D%2C%5B1%2C0.5%5D%5D%3BportConstraint%3Deastwest%3BwhiteSpace%3Dwrap%3Bhtml%3D1%3B%22%20vertex%3D%221%22%20parent%3D%222%22%3E%3CmxGeometry%20y%3D%22110%22%20width%3D%22310%22%20height%3D%2226%22%20as%3D%22geometry%22%2F%3E%3C%2FmxCell%3E%3CmxCell%20id%3D%228%22%20value%3D%22%26lt%3Bdiv%20style%3D%26quot%3Bfont-family%3A%20Tahoma%3B%20text-align%3A%20center%3B%26quot%3B%26gt%3B%2B%20getNome()%3A%20String%26amp%3Bnbsp%3B%26lt%3B%2Fdiv%26gt%3B%22%20style%3D%22text%3BstrokeColor%3Dnone%3BfillColor%3Dnone%3Balign%3Dleft%3BverticalAlign%3Dtop%3BspacingLeft%3D4%3BspacingRight%3D4%3Boverflow%3Dhidden%3Brotatable%3D0%3Bpoints%3D%5B%5B0%2C0.5%5D%2C%5B1%2C0.5%5D%5D%3BportConstraint%3Deastwest%3BwhiteSpace%3Dwrap%3Bhtml%3D1%3B%22%20vertex%3D%221%22%20parent%3D%222%22%3E%3CmxGeometry%20y%3D%22136%22%20width%3D%22310%22%20height%3D%2226%22%20as%3D%22geometry%22%2F%3E%3C%2FmxCell%3E%3CmxCell%20id%3D%229%22%20value%3D%22%26lt%3Bdiv%20style%3D%26quot%3Bfont-family%3A%20Tahoma%3B%20text-align%3A%20center%3B%26quot%3B%26gt%3B%2B%20setNome(nome%3A%20String)%3A%20void%26amp%3Bnbsp%3B%26lt%3B%2Fdiv%26gt%3B%22%20style%3D%22text%3BstrokeColor%3Dnone%3BfillColor%3Dnone%3Balign%3Dleft%3BverticalAlign%3Dtop%3BspacingLeft%3D4%3BspacingRight%3D4%3Boverflow%3Dhidden%3Brotatable%3D0%3Bpoints%3D%5B%5B0%2C0.5%5D%2C%5B1%2C0.5%5D%5D%3BportConstraint%3Deastwest%3BwhiteSpace%3Dwrap%3Bhtml%3D1%3B%22%20vertex%3D%221%22%20parent%3D%222%22%3E%3CmxGeometry%20y%3D%22162%22%20width%3D%22310%22%20height%3D%2226%22%20as%3D%22geometry%22%2F%3E%3C%2FmxCell%3E%3C%2Froot%3E%3C%2FmxGraphModel%3E&lt;/span&gt;&lt;/div&gt;" style="text;strokeColor=none;fillColor=none;align=left;verticalAlign=top;spacingLeft=4;spacingRight=4;overflow=hidden;rotatable=0;points=[[0,0.5],[1,0.5]];portConstraint=eastwest;whiteSpace=wrap;html=1;" vertex="1" parent="Lpod-rmeqhxFaZS3XNoK-16">
          <mxGeometry y="52" width="380" height="26" as="geometry" />
        </mxCell>
        <mxCell id="Lpod-rmeqhxFaZS3XNoK-42" value="&lt;div style=&quot;text-align: center;&quot;&gt;- produto: Produto&lt;/div&gt;" style="text;strokeColor=none;fillColor=none;align=left;verticalAlign=top;spacingLeft=4;spacingRight=4;overflow=hidden;rotatable=0;points=[[0,0.5],[1,0.5]];portConstraint=eastwest;whiteSpace=wrap;html=1;" vertex="1" parent="Lpod-rmeqhxFaZS3XNoK-16">
          <mxGeometry y="78" width="380" height="26" as="geometry" />
        </mxCell>
        <mxCell id="Lpod-rmeqhxFaZS3XNoK-41" value="&lt;div style=&quot;text-align: center;&quot;&gt;- quantidade: int&lt;/div&gt;" style="text;strokeColor=none;fillColor=none;align=left;verticalAlign=top;spacingLeft=4;spacingRight=4;overflow=hidden;rotatable=0;points=[[0,0.5],[1,0.5]];portConstraint=eastwest;whiteSpace=wrap;html=1;" vertex="1" parent="Lpod-rmeqhxFaZS3XNoK-16">
          <mxGeometry y="104" width="380" height="26" as="geometry" />
        </mxCell>
        <mxCell id="Lpod-rmeqhxFaZS3XNoK-19" value="" style="line;strokeWidth=1;fillColor=none;align=left;verticalAlign=middle;spacingTop=-1;spacingLeft=3;spacingRight=3;rotatable=0;labelPosition=right;points=[];portConstraint=eastwest;strokeColor=inherit;" vertex="1" parent="Lpod-rmeqhxFaZS3XNoK-16">
          <mxGeometry y="130" width="380" height="8" as="geometry" />
        </mxCell>
        <mxCell id="Lpod-rmeqhxFaZS3XNoK-20" value="+ MovimentoEstoque(id: int, data: Date,&lt;br/&gt;                   produto: Produto, quantidade: int)" style="text;strokeColor=none;fillColor=none;align=left;verticalAlign=top;spacingLeft=4;spacingRight=4;overflow=hidden;rotatable=0;points=[[0,0.5],[1,0.5]];portConstraint=eastwest;whiteSpace=wrap;html=1;" vertex="1" parent="Lpod-rmeqhxFaZS3XNoK-16">
          <mxGeometry y="138" width="380" height="42" as="geometry" />
        </mxCell>
        <mxCell id="Lpod-rmeqhxFaZS3XNoK-21" value="+ abstract processarMovimento(): void&lt;div&gt;&lt;br/&gt;&lt;/div&gt;" style="text;strokeColor=none;fillColor=none;align=left;verticalAlign=top;spacingLeft=4;spacingRight=4;overflow=hidden;rotatable=0;points=[[0,0.5],[1,0.5]];portConstraint=eastwest;whiteSpace=wrap;html=1;" vertex="1" parent="Lpod-rmeqhxFaZS3XNoK-16">
          <mxGeometry y="180" width="380" height="26" as="geometry" />
        </mxCell>
        <mxCell id="Lpod-rmeqhxFaZS3XNoK-22" value="&lt;div style=&quot;font-family: Tahoma; text-align: center;&quot;&gt;+ getId(): int&lt;br/&gt;&lt;/div&gt;" style="text;strokeColor=none;fillColor=none;align=left;verticalAlign=top;spacingLeft=4;spacingRight=4;overflow=hidden;rotatable=0;points=[[0,0.5],[1,0.5]];portConstraint=eastwest;whiteSpace=wrap;html=1;" vertex="1" parent="Lpod-rmeqhxFaZS3XNoK-16">
          <mxGeometry y="206" width="380" height="26" as="geometry" />
        </mxCell>
        <mxCell id="Lpod-rmeqhxFaZS3XNoK-46" value="&lt;div style=&quot;font-family: Tahoma; text-align: center;&quot;&gt;+ getData(): Date&lt;br/&gt;&lt;br&gt;&lt;/div&gt;" style="text;strokeColor=none;fillColor=none;align=left;verticalAlign=top;spacingLeft=4;spacingRight=4;overflow=hidden;rotatable=0;points=[[0,0.5],[1,0.5]];portConstraint=eastwest;whiteSpace=wrap;html=1;" vertex="1" parent="Lpod-rmeqhxFaZS3XNoK-16">
          <mxGeometry y="232" width="380" height="26" as="geometry" />
        </mxCell>
        <mxCell id="Lpod-rmeqhxFaZS3XNoK-47" value="&lt;div style=&quot;font-family: Tahoma; text-align: center;&quot;&gt;+ getProduto(): Produto&lt;br/&gt;&lt;br&gt;&lt;/div&gt;" style="text;strokeColor=none;fillColor=none;align=left;verticalAlign=top;spacingLeft=4;spacingRight=4;overflow=hidden;rotatable=0;points=[[0,0.5],[1,0.5]];portConstraint=eastwest;whiteSpace=wrap;html=1;" vertex="1" parent="Lpod-rmeqhxFaZS3XNoK-16">
          <mxGeometry y="258" width="380" height="26" as="geometry" />
        </mxCell>
        <mxCell id="Lpod-rmeqhxFaZS3XNoK-48" value="&lt;div style=&quot;font-family: Tahoma; text-align: center;&quot;&gt;+ getQuantidade(): int&amp;nbsp;&lt;/div&gt;" style="text;strokeColor=none;fillColor=none;align=left;verticalAlign=top;spacingLeft=4;spacingRight=4;overflow=hidden;rotatable=0;points=[[0,0.5],[1,0.5]];portConstraint=eastwest;whiteSpace=wrap;html=1;" vertex="1" parent="Lpod-rmeqhxFaZS3XNoK-16">
          <mxGeometry y="284" width="380" height="26" as="geometry" />
        </mxCell>
        <mxCell id="Lpod-rmeqhxFaZS3XNoK-24" value="SaidaEstoque" style="swimlane;fontStyle=1;align=center;verticalAlign=top;childLayout=stackLayout;horizontal=1;startSize=26;horizontalStack=0;resizeParent=1;resizeParentMax=0;resizeLast=0;collapsible=1;marginBottom=0;whiteSpace=wrap;html=1;" vertex="1" parent="1">
          <mxGeometry x="-2350" y="-1321" width="310" height="152" as="geometry">
            <mxRectangle x="-1900" y="40" width="110" height="30" as="alternateBounds" />
          </mxGeometry>
        </mxCell>
        <mxCell id="Lpod-rmeqhxFaZS3XNoK-25" value="&lt;div style=&quot;text-align: center;&quot;&gt;- motivo: String&lt;/div&gt;" style="text;strokeColor=none;fillColor=none;align=left;verticalAlign=top;spacingLeft=4;spacingRight=4;overflow=hidden;rotatable=0;points=[[0,0.5],[1,0.5]];portConstraint=eastwest;whiteSpace=wrap;html=1;" vertex="1" parent="Lpod-rmeqhxFaZS3XNoK-24">
          <mxGeometry y="26" width="310" height="26" as="geometry" />
        </mxCell>
        <mxCell id="Lpod-rmeqhxFaZS3XNoK-27" value="" style="line;strokeWidth=1;fillColor=none;align=left;verticalAlign=middle;spacingTop=-1;spacingLeft=3;spacingRight=3;rotatable=0;labelPosition=right;points=[];portConstraint=eastwest;strokeColor=inherit;" vertex="1" parent="Lpod-rmeqhxFaZS3XNoK-24">
          <mxGeometry y="52" width="310" height="8" as="geometry" />
        </mxCell>
        <mxCell id="Lpod-rmeqhxFaZS3XNoK-28" value="&lt;span&gt;+ SaidaEstoque (id: int, data: Date, produto: Produto quantidade: int, motivo: String)&amp;nbsp;&lt;/span&gt;" style="text;strokeColor=none;fillColor=none;align=left;verticalAlign=top;spacingLeft=4;spacingRight=4;overflow=hidden;rotatable=0;points=[[0,0.5],[1,0.5]];portConstraint=eastwest;whiteSpace=wrap;html=1;fontStyle=0" vertex="1" parent="Lpod-rmeqhxFaZS3XNoK-24">
          <mxGeometry y="60" width="310" height="40" as="geometry" />
        </mxCell>
        <mxCell id="Lpod-rmeqhxFaZS3XNoK-29" value=" + processarMovimento(): void" style="text;strokeColor=none;fillColor=none;align=left;verticalAlign=top;spacingLeft=4;spacingRight=4;overflow=hidden;rotatable=0;points=[[0,0.5],[1,0.5]];portConstraint=eastwest;whiteSpace=wrap;html=1;" vertex="1" parent="Lpod-rmeqhxFaZS3XNoK-24">
          <mxGeometry y="100" width="310" height="26" as="geometry" />
        </mxCell>
        <mxCell id="Lpod-rmeqhxFaZS3XNoK-30" value="&lt;div style=&quot;font-family: Tahoma; text-align: center;&quot;&gt; + getMotivo(): String&lt;/div&gt;" style="text;strokeColor=none;fillColor=none;align=left;verticalAlign=top;spacingLeft=4;spacingRight=4;overflow=hidden;rotatable=0;points=[[0,0.5],[1,0.5]];portConstraint=eastwest;whiteSpace=wrap;html=1;" vertex="1" parent="Lpod-rmeqhxFaZS3XNoK-24">
          <mxGeometry y="126" width="310" height="26" as="geometry" />
        </mxCell>
        <mxCell id="Lpod-rmeqhxFaZS3XNoK-52" value="GerenciadordeDados" style="swimlane;fontStyle=1;align=center;verticalAlign=top;childLayout=stackLayout;horizontal=1;startSize=40;horizontalStack=0;resizeParent=1;resizeParentMax=0;resizeLast=0;collapsible=1;marginBottom=0;whiteSpace=wrap;html=1;" vertex="1" parent="1">
          <mxGeometry x="-2930" y="-2180" width="420" height="660" as="geometry">
            <mxRectangle x="-2900" y="-1410" width="160" height="40" as="alternateBounds" />
          </mxGeometry>
        </mxCell>
        <mxCell id="Lpod-rmeqhxFaZS3XNoK-53" value="&lt;div style=&quot;text-align: center;&quot;&gt;- produtos: List&amp;lt;Produto&amp;gt;&lt;br/&gt;&lt;/div&gt;" style="text;strokeColor=none;fillColor=none;align=left;verticalAlign=top;spacingLeft=4;spacingRight=4;overflow=hidden;rotatable=0;points=[[0,0.5],[1,0.5]];portConstraint=eastwest;whiteSpace=wrap;html=1;" vertex="1" parent="Lpod-rmeqhxFaZS3XNoK-52">
          <mxGeometry y="40" width="420" height="26" as="geometry" />
        </mxCell>
        <mxCell id="Lpod-rmeqhxFaZS3XNoK-59" value="&lt;div style=&quot;text-align: center;&quot;&gt;- fornecedores: List&amp;lt;Fornecedor&amp;gt;&lt;br/&gt;&lt;br&gt;&lt;/div&gt;" style="text;strokeColor=none;fillColor=none;align=left;verticalAlign=top;spacingLeft=4;spacingRight=4;overflow=hidden;rotatable=0;points=[[0,0.5],[1,0.5]];portConstraint=eastwest;whiteSpace=wrap;html=1;" vertex="1" parent="Lpod-rmeqhxFaZS3XNoK-52">
          <mxGeometry y="66" width="420" height="26" as="geometry" />
        </mxCell>
        <mxCell id="Lpod-rmeqhxFaZS3XNoK-60" value="&lt;div style=&quot;text-align: center;&quot;&gt;- categorias: List&amp;lt;Categoria&amp;gt;&lt;br/&gt;&lt;br&gt;&lt;/div&gt;" style="text;strokeColor=none;fillColor=none;align=left;verticalAlign=top;spacingLeft=4;spacingRight=4;overflow=hidden;rotatable=0;points=[[0,0.5],[1,0.5]];portConstraint=eastwest;whiteSpace=wrap;html=1;" vertex="1" parent="Lpod-rmeqhxFaZS3XNoK-52">
          <mxGeometry y="92" width="420" height="26" as="geometry" />
        </mxCell>
        <mxCell id="Lpod-rmeqhxFaZS3XNoK-61" value="&lt;div style=&quot;text-align: center;&quot;&gt;- historicoDeMovimentos: List&amp;lt;MovimentoEstoque&amp;gt;&lt;br/&gt;&lt;br&gt;&lt;/div&gt;" style="text;strokeColor=none;fillColor=none;align=left;verticalAlign=top;spacingLeft=4;spacingRight=4;overflow=hidden;rotatable=0;points=[[0,0.5],[1,0.5]];portConstraint=eastwest;whiteSpace=wrap;html=1;" vertex="1" parent="Lpod-rmeqhxFaZS3XNoK-52">
          <mxGeometry y="118" width="420" height="26" as="geometry" />
        </mxCell>
        <mxCell id="Lpod-rmeqhxFaZS3XNoK-54" value="" style="line;strokeWidth=1;fillColor=none;align=left;verticalAlign=middle;spacingTop=-1;spacingLeft=3;spacingRight=3;rotatable=0;labelPosition=right;points=[];portConstraint=eastwest;strokeColor=inherit;" vertex="1" parent="Lpod-rmeqhxFaZS3XNoK-52">
          <mxGeometry y="144" width="420" height="8" as="geometry" />
        </mxCell>
        <mxCell id="Lpod-rmeqhxFaZS3XNoK-55" value="&lt;font style=&quot;font-size: 13px;&quot;&gt;+ GerenciadorDeDados()&lt;br/&gt;&lt;/font&gt;" style="text;strokeColor=none;fillColor=none;align=left;verticalAlign=top;spacingLeft=4;spacingRight=4;overflow=hidden;rotatable=0;points=[[0,0.5],[1,0.5]];portConstraint=eastwest;whiteSpace=wrap;html=1;" vertex="1" parent="Lpod-rmeqhxFaZS3XNoK-52">
          <mxGeometry y="152" width="420" height="32" as="geometry" />
        </mxCell>
        <mxCell id="Lpod-rmeqhxFaZS3XNoK-56" value="+ cadastrarProduto(novoProduto: Produto): void&lt;div&gt;&lt;br/&gt;&lt;/div&gt;" style="text;strokeColor=none;fillColor=none;align=left;verticalAlign=top;spacingLeft=4;spacingRight=4;overflow=hidden;rotatable=0;points=[[0,0.5],[1,0.5]];portConstraint=eastwest;whiteSpace=wrap;html=1;" vertex="1" parent="Lpod-rmeqhxFaZS3XNoK-52">
          <mxGeometry y="184" width="420" height="26" as="geometry" />
        </mxCell>
        <mxCell id="Lpod-rmeqhxFaZS3XNoK-57" value="&lt;div style=&quot;font-family: Tahoma; text-align: center;&quot;&gt;+ consultarProduto(id: int): Produto&lt;br/&gt;&lt;/div&gt;" style="text;strokeColor=none;fillColor=none;align=left;verticalAlign=top;spacingLeft=4;spacingRight=4;overflow=hidden;rotatable=0;points=[[0,0.5],[1,0.5]];portConstraint=eastwest;whiteSpace=wrap;html=1;" vertex="1" parent="Lpod-rmeqhxFaZS3XNoK-52">
          <mxGeometry y="210" width="420" height="26" as="geometry" />
        </mxCell>
        <mxCell id="Lpod-rmeqhxFaZS3XNoK-63" value="&lt;div style=&quot;font-family: Tahoma; text-align: center;&quot;&gt;+ atualizarProduto(id: int, dadosAtualizados: Produto): void&lt;br/&gt;&lt;br&gt;&lt;/div&gt;" style="text;strokeColor=none;fillColor=none;align=left;verticalAlign=top;spacingLeft=4;spacingRight=4;overflow=hidden;rotatable=0;points=[[0,0.5],[1,0.5]];portConstraint=eastwest;whiteSpace=wrap;html=1;" vertex="1" parent="Lpod-rmeqhxFaZS3XNoK-52">
          <mxGeometry y="236" width="420" height="26" as="geometry" />
        </mxCell>
        <mxCell id="Lpod-rmeqhxFaZS3XNoK-64" value="&lt;div style=&quot;font-family: Tahoma; text-align: center;&quot;&gt;+ removerProduto(id: int): void&lt;br/&gt;&lt;br&gt;&lt;/div&gt;" style="text;strokeColor=none;fillColor=none;align=left;verticalAlign=top;spacingLeft=4;spacingRight=4;overflow=hidden;rotatable=0;points=[[0,0.5],[1,0.5]];portConstraint=eastwest;whiteSpace=wrap;html=1;" vertex="1" parent="Lpod-rmeqhxFaZS3XNoK-52">
          <mxGeometry y="262" width="420" height="26" as="geometry" />
        </mxCell>
        <mxCell id="7a0r4--phNWT5isBZOg2-27" value="&lt;div style=&quot;font-family: Tahoma; text-align: center;&quot;&gt;+ + cadastrarFornecedor(novoFornecedor: Fornecedor): void&lt;br&gt;&lt;br&gt;&lt;/div&gt;" style="text;strokeColor=none;fillColor=none;align=left;verticalAlign=top;spacingLeft=4;spacingRight=4;overflow=hidden;rotatable=0;points=[[0,0.5],[1,0.5]];portConstraint=eastwest;whiteSpace=wrap;html=1;" vertex="1" parent="Lpod-rmeqhxFaZS3XNoK-52">
          <mxGeometry y="288" width="420" height="26" as="geometry" />
        </mxCell>
        <mxCell id="7a0r4--phNWT5isBZOg2-28" value="&lt;div style=&quot;font-family: Tahoma; text-align: center;&quot;&gt;+ consultarFornecedor(id: int): Fornecedor&lt;/div&gt;" style="text;strokeColor=none;fillColor=none;align=left;verticalAlign=top;spacingLeft=4;spacingRight=4;overflow=hidden;rotatable=0;points=[[0,0.5],[1,0.5]];portConstraint=eastwest;whiteSpace=wrap;html=1;" vertex="1" parent="Lpod-rmeqhxFaZS3XNoK-52">
          <mxGeometry y="314" width="420" height="26" as="geometry" />
        </mxCell>
        <mxCell id="7a0r4--phNWT5isBZOg2-29" value="&lt;div style=&quot;font-family: Tahoma; text-align: center;&quot;&gt;+ atualizarFornecedor(id: int, dadosAtualizados: Fornecedor): void&amp;nbsp;&lt;/div&gt;" style="text;strokeColor=none;fillColor=none;align=left;verticalAlign=top;spacingLeft=4;spacingRight=4;overflow=hidden;rotatable=0;points=[[0,0.5],[1,0.5]];portConstraint=eastwest;whiteSpace=wrap;html=1;" vertex="1" parent="Lpod-rmeqhxFaZS3XNoK-52">
          <mxGeometry y="340" width="420" height="26" as="geometry" />
        </mxCell>
        <mxCell id="7a0r4--phNWT5isBZOg2-30" value="&lt;div style=&quot;font-family: Tahoma; text-align: center;&quot;&gt;+ removerFornecedor(id: int): void&amp;nbsp;&lt;/div&gt;" style="text;strokeColor=none;fillColor=none;align=left;verticalAlign=top;spacingLeft=4;spacingRight=4;overflow=hidden;rotatable=0;points=[[0,0.5],[1,0.5]];portConstraint=eastwest;whiteSpace=wrap;html=1;" vertex="1" parent="Lpod-rmeqhxFaZS3XNoK-52">
          <mxGeometry y="366" width="420" height="26" as="geometry" />
        </mxCell>
        <mxCell id="7a0r4--phNWT5isBZOg2-31" value="&lt;div style=&quot;font-family: Tahoma; text-align: center;&quot;&gt;+ cadastrarCategoria(novaCategoria: Categoria): void&lt;/div&gt;" style="text;strokeColor=none;fillColor=none;align=left;verticalAlign=top;spacingLeft=4;spacingRight=4;overflow=hidden;rotatable=0;points=[[0,0.5],[1,0.5]];portConstraint=eastwest;whiteSpace=wrap;html=1;" vertex="1" parent="Lpod-rmeqhxFaZS3XNoK-52">
          <mxGeometry y="392" width="420" height="26" as="geometry" />
        </mxCell>
        <mxCell id="7a0r4--phNWT5isBZOg2-32" value="&lt;div style=&quot;font-family: Tahoma; text-align: center;&quot;&gt;&amp;nbsp;+ consultarCategoria(id: int): Categoria&lt;br/&gt;&lt;/div&gt;" style="text;strokeColor=none;fillColor=none;align=left;verticalAlign=top;spacingLeft=4;spacingRight=4;overflow=hidden;rotatable=0;points=[[0,0.5],[1,0.5]];portConstraint=eastwest;whiteSpace=wrap;html=1;" vertex="1" parent="Lpod-rmeqhxFaZS3XNoK-52">
          <mxGeometry y="418" width="420" height="26" as="geometry" />
        </mxCell>
        <mxCell id="7a0r4--phNWT5isBZOg2-57" value="&lt;div style=&quot;font-family: Tahoma; text-align: center;&quot;&gt;+ atualizarCategoria(id: int, dadosAtualizados: Categoria): void&lt;br/&gt;&lt;br&gt;&lt;/div&gt;" style="text;strokeColor=none;fillColor=none;align=left;verticalAlign=top;spacingLeft=4;spacingRight=4;overflow=hidden;rotatable=0;points=[[0,0.5],[1,0.5]];portConstraint=eastwest;whiteSpace=wrap;html=1;" vertex="1" parent="Lpod-rmeqhxFaZS3XNoK-52">
          <mxGeometry y="444" width="420" height="26" as="geometry" />
        </mxCell>
        <mxCell id="7a0r4--phNWT5isBZOg2-58" value="&lt;div style=&quot;font-family: Tahoma; text-align: center;&quot;&gt;+ removerCategoria(id: int): void&lt;/div&gt;" style="text;strokeColor=none;fillColor=none;align=left;verticalAlign=top;spacingLeft=4;spacingRight=4;overflow=hidden;rotatable=0;points=[[0,0.5],[1,0.5]];portConstraint=eastwest;whiteSpace=wrap;html=1;" vertex="1" parent="Lpod-rmeqhxFaZS3XNoK-52">
          <mxGeometry y="470" width="420" height="26" as="geometry" />
        </mxCell>
        <mxCell id="Lpod-rmeqhxFaZS3XNoK-65" value="&lt;div style=&quot;font-family: Tahoma; text-align: center;&quot;&gt;+ registrarEntrada(entrada: EntradaEstoque): void&lt;br/&gt;&lt;br&gt;&lt;/div&gt;" style="text;strokeColor=none;fillColor=none;align=left;verticalAlign=top;spacingLeft=4;spacingRight=4;overflow=hidden;rotatable=0;points=[[0,0.5],[1,0.5]];portConstraint=eastwest;whiteSpace=wrap;html=1;" vertex="1" parent="Lpod-rmeqhxFaZS3XNoK-52">
          <mxGeometry y="496" width="420" height="26" as="geometry" />
        </mxCell>
        <mxCell id="Lpod-rmeqhxFaZS3XNoK-62" value="&lt;div style=&quot;font-family: Tahoma; text-align: center;&quot;&gt;+ registrarSaida(saida: SaidaEstoque): void&amp;nbsp;&lt;/div&gt;" style="text;strokeColor=none;fillColor=none;align=left;verticalAlign=top;spacingLeft=4;spacingRight=4;overflow=hidden;rotatable=0;points=[[0,0.5],[1,0.5]];portConstraint=eastwest;whiteSpace=wrap;html=1;" vertex="1" parent="Lpod-rmeqhxFaZS3XNoK-52">
          <mxGeometry y="522" width="420" height="26" as="geometry" />
        </mxCell>
        <mxCell id="Lpod-rmeqhxFaZS3XNoK-66" value="&lt;div style=&quot;font-family: Tahoma; text-align: center;&quot;&gt;+ getTotalDeItensPorCategoria(nomeCategoria: String): int&lt;br/&gt;&lt;/div&gt;" style="text;strokeColor=none;fillColor=none;align=left;verticalAlign=top;spacingLeft=4;spacingRight=4;overflow=hidden;rotatable=0;points=[[0,0.5],[1,0.5]];portConstraint=eastwest;whiteSpace=wrap;html=1;" vertex="1" parent="Lpod-rmeqhxFaZS3XNoK-52">
          <mxGeometry y="548" width="420" height="26" as="geometry" />
        </mxCell>
        <mxCell id="Lpod-rmeqhxFaZS3XNoK-67" value="&lt;div style=&quot;font-family: Tahoma; text-align: center;&quot;&gt;+ gerarAlertaDeEstoqueMinimo(): List&amp;lt;Produto&amp;gt;&lt;br/&gt;&lt;/div&gt;" style="text;strokeColor=none;fillColor=none;align=left;verticalAlign=top;spacingLeft=4;spacingRight=4;overflow=hidden;rotatable=0;points=[[0,0.5],[1,0.5]];portConstraint=eastwest;whiteSpace=wrap;html=1;" vertex="1" parent="Lpod-rmeqhxFaZS3XNoK-52">
          <mxGeometry y="574" width="420" height="26" as="geometry" />
        </mxCell>
        <mxCell id="Lpod-rmeqhxFaZS3XNoK-70" value="&lt;div style=&quot;font-family: Tahoma; text-align: center;&quot;&gt;+ getTotalDeItens(nomeCategoria: String, nomeFornecedor: String): int&lt;br/&gt;&lt;/div&gt;" style="text;strokeColor=none;fillColor=none;align=left;verticalAlign=top;spacingLeft=4;spacingRight=4;overflow=hidden;rotatable=0;points=[[0,0.5],[1,0.5]];portConstraint=eastwest;whiteSpace=wrap;html=1;" vertex="1" parent="Lpod-rmeqhxFaZS3XNoK-52">
          <mxGeometry y="600" width="420" height="26" as="geometry" />
        </mxCell>
        <mxCell id="Lpod-rmeqhxFaZS3XNoK-58" value="&lt;div style=&quot;font-family: Tahoma; text-align: center;&quot;&gt;&lt;br&gt;&lt;/div&gt;" style="text;strokeColor=none;fillColor=none;align=left;verticalAlign=top;spacingLeft=4;spacingRight=4;overflow=hidden;rotatable=0;points=[[0,0.5],[1,0.5]];portConstraint=eastwest;whiteSpace=wrap;html=1;" vertex="1" parent="Lpod-rmeqhxFaZS3XNoK-52">
          <mxGeometry y="626" width="420" height="8" as="geometry" />
        </mxCell>
        <mxCell id="7a0r4--phNWT5isBZOg2-4" value="&lt;div style=&quot;font-family: Tahoma; text-align: center;&quot;&gt;+ getPrecoDeVenda(produto: Produto, fornecedor: Fornecedor): double&lt;br&gt;&lt;/div&gt;" style="text;strokeColor=none;fillColor=none;align=left;verticalAlign=top;spacingLeft=4;spacingRight=4;overflow=hidden;rotatable=0;points=[[0,0.5],[1,0.5]];portConstraint=eastwest;whiteSpace=wrap;html=1;" vertex="1" parent="Lpod-rmeqhxFaZS3XNoK-52">
          <mxGeometry y="634" width="420" height="26" as="geometry" />
        </mxCell>
        <mxCell id="-h6qQ960cBfA1UG9frks-5" value="&lt;span style=&quot;font-weight: 700;&quot;&gt;&amp;lt;&amp;lt;interface&amp;gt;&amp;gt;&lt;/span&gt;&lt;div style=&quot;font-weight: 700;&quot;&gt;Gerenciavel&lt;/div&gt;" style="swimlane;fontStyle=0;childLayout=stackLayout;horizontal=1;startSize=40;fillColor=none;horizontalStack=0;resizeParent=1;resizeParentMax=0;resizeLast=0;collapsible=1;marginBottom=0;whiteSpace=wrap;html=1;" vertex="1" parent="1">
          <mxGeometry x="-3380" y="-1858" width="140" height="118" as="geometry">
            <mxRectangle x="-3325" y="-1240" width="120" height="40" as="alternateBounds" />
          </mxGeometry>
        </mxCell>
        <mxCell id="-h6qQ960cBfA1UG9frks-6" value="+ cadastrar(): void&lt;div&gt;&lt;br&gt;&lt;/div&gt;" style="text;strokeColor=none;fillColor=none;align=left;verticalAlign=top;spacingLeft=4;spacingRight=4;overflow=hidden;rotatable=0;points=[[0,0.5],[1,0.5]];portConstraint=eastwest;whiteSpace=wrap;html=1;" vertex="1" parent="-h6qQ960cBfA1UG9frks-5">
          <mxGeometry y="40" width="140" height="26" as="geometry" />
        </mxCell>
        <mxCell id="-h6qQ960cBfA1UG9frks-7" value="&lt;div&gt;+ atualizar(): void&lt;/div&gt;&lt;div&gt;&lt;br&gt;&lt;/div&gt;" style="text;strokeColor=none;fillColor=none;align=left;verticalAlign=top;spacingLeft=4;spacingRight=4;overflow=hidden;rotatable=0;points=[[0,0.5],[1,0.5]];portConstraint=eastwest;whiteSpace=wrap;html=1;" vertex="1" parent="-h6qQ960cBfA1UG9frks-5">
          <mxGeometry y="66" width="140" height="26" as="geometry" />
        </mxCell>
        <mxCell id="-h6qQ960cBfA1UG9frks-8" value="+ remover(): void" style="text;strokeColor=none;fillColor=none;align=left;verticalAlign=top;spacingLeft=4;spacingRight=4;overflow=hidden;rotatable=0;points=[[0,0.5],[1,0.5]];portConstraint=eastwest;whiteSpace=wrap;html=1;" vertex="1" parent="-h6qQ960cBfA1UG9frks-5">
          <mxGeometry y="92" width="140" height="26" as="geometry" />
        </mxCell>
        <mxCell id="ykFrEF4hdSd623kXm1zS-1" value="Main" style="swimlane;fontStyle=1;align=center;verticalAlign=top;childLayout=stackLayout;horizontal=1;startSize=26;horizontalStack=0;resizeParent=1;resizeParentMax=0;resizeLast=0;collapsible=1;marginBottom=0;whiteSpace=wrap;html=1;" vertex="1" parent="1">
          <mxGeometry x="-3380" y="-2180" width="160" height="60" as="geometry" />
        </mxCell>
        <mxCell id="ykFrEF4hdSd623kXm1zS-2" value="" style="line;strokeWidth=1;fillColor=none;align=left;verticalAlign=middle;spacingTop=-1;spacingLeft=3;spacingRight=3;rotatable=0;labelPosition=right;points=[];portConstraint=eastwest;strokeColor=inherit;" vertex="1" parent="ykFrEF4hdSd623kXm1zS-1">
          <mxGeometry y="26" width="160" height="8" as="geometry" />
        </mxCell>
        <mxCell id="ykFrEF4hdSd623kXm1zS-3" value="+ main(args: String[]): void&lt;div&gt;&lt;br/&gt;&lt;/div&gt;" style="text;strokeColor=none;fillColor=none;align=left;verticalAlign=top;spacingLeft=4;spacingRight=4;overflow=hidden;rotatable=0;points=[[0,0.5],[1,0.5]];portConstraint=eastwest;whiteSpace=wrap;html=1;" vertex="1" parent="ykFrEF4hdSd623kXm1zS-1">
          <mxGeometry y="34" width="160" height="26" as="geometry" />
        </mxCell>
        <mxCell id="ykFrEF4hdSd623kXm1zS-4" value="MenuPrincipal" style="swimlane;fontStyle=1;align=center;verticalAlign=top;childLayout=stackLayout;horizontal=1;startSize=26;horizontalStack=0;resizeParent=1;resizeParentMax=0;resizeLast=0;collapsible=1;marginBottom=0;whiteSpace=wrap;html=1;" vertex="1" parent="1">
          <mxGeometry x="-3380" y="-2090" width="160" height="196" as="geometry" />
        </mxCell>
        <mxCell id="ykFrEF4hdSd623kXm1zS-5" value="- idProduto: int&lt;div&gt;&lt;br/&gt;&lt;/div&gt;" style="text;strokeColor=none;fillColor=none;align=left;verticalAlign=top;spacingLeft=4;spacingRight=4;overflow=hidden;rotatable=0;points=[[0,0.5],[1,0.5]];portConstraint=eastwest;whiteSpace=wrap;html=1;" vertex="1" parent="ykFrEF4hdSd623kXm1zS-4">
          <mxGeometry y="26" width="160" height="26" as="geometry" />
        </mxCell>
        <mxCell id="ykFrEF4hdSd623kXm1zS-6" value="- idFornecedor: int&lt;div&gt;&lt;br/&gt;&lt;/div&gt;" style="text;strokeColor=none;fillColor=none;align=left;verticalAlign=top;spacingLeft=4;spacingRight=4;overflow=hidden;rotatable=0;points=[[0,0.5],[1,0.5]];portConstraint=eastwest;whiteSpace=wrap;html=1;" vertex="1" parent="ykFrEF4hdSd623kXm1zS-4">
          <mxGeometry y="52" width="160" height="28" as="geometry" />
        </mxCell>
        <mxCell id="ykFrEF4hdSd623kXm1zS-7" value="- idCategoria: int" style="text;whiteSpace=wrap;html=1;" vertex="1" parent="ykFrEF4hdSd623kXm1zS-4">
          <mxGeometry y="80" width="160" height="30" as="geometry" />
        </mxCell>
        <mxCell id="ykFrEF4hdSd623kXm1zS-8" value="- idMovimento: int&lt;div&gt;&lt;br/&gt;&lt;/div&gt;" style="text;strokeColor=none;fillColor=none;align=left;verticalAlign=top;spacingLeft=4;spacingRight=4;overflow=hidden;rotatable=0;points=[[0,0.5],[1,0.5]];portConstraint=eastwest;whiteSpace=wrap;html=1;" vertex="1" parent="ykFrEF4hdSd623kXm1zS-4">
          <mxGeometry y="110" width="160" height="26" as="geometry" />
        </mxCell>
        <mxCell id="ykFrEF4hdSd623kXm1zS-9" value="- idMovimento: int&lt;div&gt;&lt;br/&gt;&lt;/div&gt;" style="text;strokeColor=none;fillColor=none;align=left;verticalAlign=top;spacingLeft=4;spacingRight=4;overflow=hidden;rotatable=0;points=[[0,0.5],[1,0.5]];portConstraint=eastwest;whiteSpace=wrap;html=1;" vertex="1" parent="ykFrEF4hdSd623kXm1zS-4">
          <mxGeometry y="136" width="160" height="26" as="geometry" />
        </mxCell>
        <mxCell id="ykFrEF4hdSd623kXm1zS-10" value="" style="line;strokeWidth=1;fillColor=none;align=left;verticalAlign=middle;spacingTop=-1;spacingLeft=3;spacingRight=3;rotatable=0;labelPosition=right;points=[];portConstraint=eastwest;strokeColor=inherit;" vertex="1" parent="ykFrEF4hdSd623kXm1zS-4">
          <mxGeometry y="162" width="160" height="8" as="geometry" />
        </mxCell>
        <mxCell id="ykFrEF4hdSd623kXm1zS-11" value="+ iniciar(): void&lt;div&gt;&lt;br/&gt;&lt;/div&gt;" style="text;strokeColor=none;fillColor=none;align=left;verticalAlign=top;spacingLeft=4;spacingRight=4;overflow=hidden;rotatable=0;points=[[0,0.5],[1,0.5]];portConstraint=eastwest;whiteSpace=wrap;html=1;" vertex="1" parent="ykFrEF4hdSd623kXm1zS-4">
          <mxGeometry y="170" width="160" height="26" as="geometry" />
        </mxCell>
      </root>
    </mxGraphModel>
  </diagram>
</mxfile>
